<?xml version="1.0" encoding="UTF-8"?>
<svg id="encrage" xmlns="http://www.w3.org/2000/svg" viewBox="0 0 640.05 536.4">
  <path d="M290.76,262.01c-2.3-53.46-34.01-99.4-79.33-122.06-3.34,8.95-5.04,18.36-5.04,28.01,0,30.67,17.64,59.1,44.95,72.5,19.24,6.52,32.92,12.71,39.42,21.55Z" fill="#1a14d9"/>
  <path d="M4.15,532.29h77.5v-62.25c-27.18-6.5-53.3-17.02-77.5-31.3v93.54Z" fill="#1a14d9"/>
  <path d="M4.15,302.7v131.31c24.14,14.53,50.28,25.22,77.49,31.83v-65.69c-38.38-19.25-67.24-54.76-77.49-97.45Z" fill="#1a14d9"/>
  <path d="M70.12,98.57c32.63-27.36,66.26-36.11,75.4-37.53V4.77C127.09,12.61,4.15,89.06,4.15,206.65v12.09c10.67-61.35,40.29-98.64,65.97-120.17Z" fill="#1a14d9"/>
  <path d="M287.09,220.64c-10.28-60.95-39.47-97.8-64.75-118.99-31.66-26.53-63.86-35.08-72.73-36.5v55.66c63.76.89,117.84,42.43,137.47,99.83Z" fill="#614bf2"/>
  <path d="M92.79,167.95c0,26.6-12.65,51.58-33.2,67.42.17-.05.33-.11.5-.16,40.71-12.73,84.14-48.16,85.45-109.56,0-.25-.01-.49-.02-.74-20.74.29-40.43,5-58.17,13.23,3.6,9.52,5.43,19.54,5.43,29.8Z" fill="#614bf2"/>
  <path d="M88.68,167.95c0-9.64-1.7-19.06-5.04-28.01C38.28,162.62,6.55,208.64,4.31,262.17c6.41-8.89,20.06-15.1,39.27-21.62h0c27.4-13.37,45.11-41.86,45.11-72.6Z" fill="#1a14d9"/>
  <path d="M145.52,65.15c-8.87,1.43-41.06,9.98-72.76,36.56-25.28,21.19-54.46,58.02-64.76,118.87,19.66-57.39,73.75-98.91,137.52-99.77v-55.66Z" fill="#614bf2"/>
  <path d="M149.62,4.81v56.23c9.13,1.42,42.77,10.16,75.36,37.47,25.66,21.51,55.27,58.79,65.93,120.18v-12.04c0-64.42-37.24-115.57-68.48-147.14-31.5-31.82-63.88-50.92-72.81-54.71Z" fill="#1a14d9"/>
  <path d="M202.29,167.95c0-10.27,1.83-20.29,5.43-29.8-17.7-8.22-37.35-12.93-58.05-13.23,0,.24-.01.49-.02.73,1.31,61.4,44.74,96.83,85.45,109.56.1.03.19.06.29.09-20.5-15.84-33.11-40.79-33.11-67.35Z" fill="#614bf2"/>
  <path d="M85.75,397.62c18.72,8.98,39.67,14.01,61.78,14.01,77.46,0,140.74-61.76,143.26-138.62-1.49-14.24-18.55-21.88-56.92-33.88-37.31-11.66-76.84-41.79-86.28-92.76-9.44,50.97-48.97,81.09-86.28,92.76-39.5,12.35-56.41,20.08-57.01,35.15,2.24,53.92,34.4,100.24,80.28,122.76h1.17v.58ZM172.39,266.6l6.62-6.45c-.33-.33-.66-.64-1-.98-.8-.8-.8-2.1,0-2.9s2.1-.8,2.9,0c.85.85,1.68,1.65,2.5,2.43,0,0,0,0,.01,0,0,0,0,0,0,0,10.89,10.27,19.7,14.34,30.67,14.34,6.25,0,12.49-1.62,18.53-4.75.02-.01.03-.03.05-.04.03-.01.05-.01.08-.02,4.93-2.57,9.73-6.15,14.28-10.7.8-.8,2.1-.8,2.9,0s.8,2.1,0,2.9c-.31.31-.63.61-.94.91l6.73,6.63c.81.8.82,2.1.02,2.9-.4.41-.93.61-1.46.61s-1.04-.2-1.44-.59l-6.87-6.78c-3.1,2.67-6.3,4.94-9.57,6.8l4.77,9.11c.53,1,.14,2.24-.87,2.77-.3.16-.63.23-.95.23-.74,0-1.45-.4-1.82-1.1l-4.77-9.11c-5.25,2.47-10.64,3.9-16.08,4.24v9.09c0,1.13-.92,2.05-2.05,2.05s-2.05-.92-2.05-2.05v-9.04c-6.42-.2-12.17-1.7-17.96-4.85l-4.36,8.17c-.37.69-1.08,1.08-1.81,1.08-.33,0-.66-.08-.97-.24-1-.53-1.38-1.78-.84-2.78l4.46-8.34c-2.95-1.94-5.96-4.32-9.11-7.19l-6.73,6.57c-.4.39-.92.58-1.43.58s-1.07-.21-1.47-.62c-.79-.81-.78-2.11.04-2.9ZM83.6,322.59c-7.81,0-13.64-7.96-13.64-15.09,0-3.7,2.99-10.47,6.15-17.63,2.03-4.59,4.25-9.64,5.08-12.75-6-.29-11.44-1.77-16.9-4.7l-4.41,7.88c-.38.67-1.07,1.05-1.79,1.05-.34,0-.68-.08-1-.26-.99-.56-1.34-1.81-.79-2.79l4.46-7.96c-3.15-2.04-6.36-4.6-9.73-7.71l-6.84,6.51c-.4.38-.91.57-1.41.57-.54,0-1.08-.21-1.49-.64-.78-.82-.75-2.12.07-2.9l6.69-6.37c-.21-.21-.41-.39-.62-.6-.8-.8-.8-2.1,0-2.9s2.1-.8,2.9,0c12.08,12.08,21.39,16.79,33.19,16.79,6.26,0,12.52-1.63,18.57-4.77.02-.01.04-.04.06-.05.03-.02.06-.01.1-.03,4.91-2.57,9.68-6.14,14.21-10.67.8-.8,2.1-.8,2.9,0s.8,2.1,0,2.9c-.31.31-.63.61-.95.92l7.03,6.76c.82.79.84,2.08.06,2.9-.4.42-.94.63-1.48.63s-1.02-.19-1.42-.57l-7.22-6.94c-3.08,2.65-6.25,4.9-9.5,6.76l4.83,9.14c.53,1,.15,2.24-.86,2.77-.3.16-.63.24-.96.24-.74,0-1.45-.4-1.82-1.09l-4.83-9.15c-5.29,2.5-10.73,3.94-16.21,4.28.85,3.08,3.01,8.03,4.99,12.54,3.19,7.27,6.21,14.14,6.21,17.87,0,7.12-5.83,15.09-13.64,15.09Z" fill="#614bf2"/>
  <path d="M216.03,398.81v66.35c26.28-6.65,51.52-17.1,74.89-31.17v-131.29c-10.02,41.71-37.81,76.57-74.89,96.1Z" fill="#1a14d9"/>
  <path d="M85.75,470.96v61.33h126.17v-61.91c-20.99,4.9-42.58,7.43-64.39,7.43s-41.61-2.34-61.78-6.85Z" fill="#614bf2"/>
  <path d="M85.75,402.12v64.64c20.16,4.57,40.88,6.95,61.78,6.95s43.41-2.56,64.39-7.53v-65.26c-19.47,9.49-41.31,14.82-64.39,14.82s-42.98-4.9-61.78-13.61Z" fill="#614bf2"/>
  <path d="M216.03,532.29h74.89v-93.55c-23.43,13.82-48.65,24.12-74.89,30.65v62.89Z" fill="#1a14d9"/>
  <polygon points="84.58 397.04 98.42 367.42 122.59 345.13 148.85 334.66 177.85 346.64 200 368.01 210.69 388.8 211.92 398.66 191.09 407.03 163.26 412.83 134.3 413.09 110.05 408.81 95.14 403.97 84.58 399.01 84.58 397.04" fill="#1a14d9"/>
  <path d="M294.98,536.4H0V206.65C0,140.79,38.2,88.5,70.23,56.23,105.65,20.56,142.35,0,147.52,0s41.81,20.48,77.16,56.01c32.07,32.22,70.29,84.51,70.29,150.65v329.74ZM4.1,532.29h286.77V206.65c0-64.42-37.24-115.57-68.49-147.14C187.36,24.13,151.23,4.46,147.48,4.1,140.17,4.76,4.11,82.95,4.11,206.65v325.64Z"/>
  <path d="M215.98,409.54h-4.1c0-46.2-47.94-72.83-63.17-72.83-13.49,0-63.01,26.51-63.01,72.83h-4.1c0-48.8,50.93-76.93,67.11-76.93s67.27,27.28,67.27,76.93Z"/>
  <path d="M147.49,415.74C66.17,415.74,0,349.57,0,268.25S66.17,120.76,147.49,120.76s147.49,66.16,147.49,147.49-66.16,147.49-147.49,147.49ZM147.49,124.87C68.43,124.87,4.11,189.19,4.11,268.25s64.32,143.38,143.38,143.38,143.38-64.32,143.38-143.38S226.55,124.87,147.49,124.87Z"/>
  <path d="M249.66,244.23c-28.8-14.05-47.42-43.99-47.42-76.28,0-10.4,1.87-20.56,5.57-30.19l3.83,1.47c-3.51,9.16-5.29,18.83-5.29,28.72,0,30.73,17.71,59.22,45.11,72.59l-1.8,3.69Z"/>
  <path d="M45.33,244.23l-1.8-3.69c27.4-13.36,45.11-41.86,45.11-72.59,0-9.9-1.78-19.56-5.29-28.72l3.83-1.47c3.69,9.63,5.57,19.79,5.57,30.19,0,32.29-18.61,62.23-47.42,76.28Z"/>
  <path d="M147.49,477.81c-51.53,0-101.97-14-145.85-40.49l2.12-3.52c43.24,26.11,92.95,39.9,143.73,39.9s101.01-13.94,144.42-40.32l2.13,3.51c-44.05,26.77-94.73,40.92-146.55,40.92Z"/>
  <rect x="145.47" y="2.05" width="4.1" height="120.76"/>
  <path d="M294.98,268.25h-4.1c0-90.19-37.29-140.37-68.57-166.59-35.12-29.44-70.92-36.73-74.78-36.73s-39.64,7.31-74.81,36.79C41.42,127.95,4.11,178.15,4.11,268.25H0C0,176.56,38.11,125.37,70.08,98.57c36.09-30.26,73.41-37.75,77.45-37.75s41.37,7.49,77.41,37.69c31.95,26.78,70.04,77.97,70.04,169.74Z"/>
  <rect x="211.88" y="397.04" width="4.1" height="137.31"/>
  <rect x="81.6" y="397.04" width="4.1" height="137.31"/>
  <path d="M294.98,275.12h-4.1c0-15.63-16.81-23.41-57.04-35.99-42.73-13.36-88.39-50.93-88.39-116.31h4.1c0,63.16,44.17,99.47,85.51,112.4,37.28,11.66,59.92,20.16,59.92,39.91Z"/>
  <path d="M4.23,275.12H.13c0-19.75,22.64-28.25,59.92-39.91,41.34-12.92,85.51-49.24,85.51-112.4h4.1c0,65.38-45.66,102.95-88.39,116.31-40.22,12.58-57.04,20.36-57.04,35.99Z"/>
  <path d="M83.48,277.17c-13.03,0-23.15-5.04-36.09-17.99-.8-.8-.8-2.1,0-2.9s2.1-.8,2.9,0c12.08,12.08,21.39,16.79,33.19,16.79s22.79-5.37,32.94-15.52c.8-.8,2.1-.8,2.9,0s.8,2.1,0,2.9c-10.94,10.94-23.33,16.72-35.84,16.72Z"/>
  <path d="M214.06,277.17c-13.03,0-23.15-5.04-36.09-17.99-.8-.8-.8-2.1,0-2.9s2.1-.8,2.9,0c12.08,12.08,21.39,16.79,33.19,16.79s22.79-5.37,32.94-15.52c.8-.8,2.1-.8,2.9,0s.8,2.1,0,2.9c-10.94,10.94-23.33,16.72-35.84,16.72Z"/>
  <path d="M42.73,269.69c-.54,0-1.08-.21-1.49-.64-.78-.82-.75-2.12.07-2.9l8.23-7.84c.82-.78,2.12-.75,2.9.07.78.82.75,2.12-.07,2.9l-8.23,7.84c-.4.38-.91.57-1.41.57Z"/>
  <path d="M58.04,281.34c-.34,0-.68-.08-1-.26-.99-.56-1.34-1.81-.79-2.79l5.42-9.68c.55-.99,1.81-1.34,2.79-.79.99.55,1.34,1.8.79,2.79l-5.42,9.68c-.38.67-1.07,1.05-1.79,1.05Z"/>
  <path d="M108.85,283.05c-.74,0-1.45-.4-1.82-1.09l-5.78-10.94c-.53-1-.15-2.24.86-2.77s2.24-.15,2.77.86l5.78,10.94c.53,1,.15,2.24-.86,2.77-.31.16-.63.24-.96.24Z"/>
  <path d="M123.98,271.66c-.51,0-1.02-.19-1.42-.57l-8.58-8.25c-.82-.79-.84-2.08-.06-2.9.79-.82,2.09-.84,2.9-.06l8.58,8.25c.82.79.84,2.08.06,2.9-.4.42-.94.63-1.48.63Z"/>
  <path d="M173.78,270.13c-.53,0-1.07-.21-1.47-.62-.79-.81-.78-2.11.04-2.9l8.13-7.93c.81-.79,2.11-.77,2.9.04.79.81.78,2.11-.04,2.9l-8.13,7.93c-.4.39-.92.58-1.43.58Z"/>
  <path d="M188.4,281.53c-.33,0-.66-.08-.97-.24-1-.53-1.38-1.78-.84-2.78l5.36-10.03c.53-1,1.78-1.37,2.78-.84,1,.53,1.38,1.78.84,2.78l-5.36,10.03c-.37.69-1.08,1.08-1.81,1.08Z"/>
  <path d="M214.59,288.22c-1.13,0-2.05-.92-2.05-2.05v-11.06c0-1.13.92-2.05,2.05-2.05s2.05.92,2.05,2.05v11.06c0,1.13-.92,2.05-2.05,2.05Z"/>
  <path d="M239.31,283.05c-.74,0-1.45-.4-1.82-1.1l-5.72-10.91c-.53-1-.14-2.24.87-2.77,1-.53,2.24-.14,2.77.86l5.72,10.91c.53,1,.14,2.24-.87,2.77-.3.16-.63.23-.95.23Z"/>
  <path d="M254.24,271.5c-.52,0-1.04-.2-1.44-.59l-8.24-8.12c-.81-.8-.82-2.1-.02-2.9.79-.81,2.09-.82,2.9-.02l8.24,8.12c.81.8.82,2.1.02,2.9-.4.41-.93.61-1.46.61Z"/>
  <path d="M95.24,307.5c0,6.4-5.19,13.03-11.59,13.03s-11.59-6.63-11.59-13.03,11.59-26.51,11.59-32.39c.13,5.88,11.59,25.99,11.59,32.39Z" fill="#db0000"/>
  <path d="M83.56,322.59c-7.81,0-13.64-7.96-13.64-15.09,0-3.7,2.99-10.47,6.15-17.63,2.55-5.77,5.43-12.31,5.43-14.75,0-1.12.91-2.04,2.03-2.05h.02c1.12,0,2.03.89,2.05,2.01.05,2.43,2.88,8.87,5.38,14.55,3.19,7.27,6.21,14.14,6.21,17.88,0,7.12-5.83,15.09-13.64,15.09ZM83.58,282.7c-1.02,2.63-2.35,5.63-3.76,8.82-2.72,6.16-5.8,13.14-5.8,15.98,0,5.08,4.16,10.98,9.53,10.98s9.53-5.9,9.53-10.98c0-2.88-3.12-9.97-5.86-16.22-1.36-3.1-2.64-6.01-3.64-8.57Z"/>
</svg>