<svg width="27" height="45" viewBox="0 0 27 45" fill="none" xmlns="http://www.w3.org/2000/svg">
<path d="M26.1741 17.18H18.7072V13.491C18.7072 13.4262 18.9032 12.8813 18.9506 12.7639C20.1738 9.73186 23.6768 11.1239 26.08 10.7719C26.5988 10.6963 27.0045 10.2199 26.9976 9.6723L26.9571 0.906798C26.7861 0.389455 26.4417 0.160117 25.9186 0.109449C24.098 -0.0665543 20.9568 -0.00344196 19.0965 0.113894C14.2184 0.421455 9.9748 3.94864 8.71794 8.80473C8.017 11.5159 8.484 14.4822 8.34848 17.2689H0.881569C0.385214 17.2689 0.0882636 18.0218 0.0580507 18.4654C-0.125817 21.1712 0.20221 24.0948 0.0615036 26.8246C0.00453063 27.1873 0.581166 27.8469 0.881569 27.8469H7.6579V44.1583C7.6579 44.4241 8.24748 44.9592 8.56256 44.9157C11.368 44.7103 14.5231 45.1823 17.2863 44.9174C17.522 44.8952 17.6843 44.8766 17.888 44.737C18.0045 44.657 18.3619 44.1681 18.3619 44.0694V27.8469H24.016C24.2267 27.8469 24.7325 27.3731 24.7757 27.118L26.9985 18.1134C27.0399 17.7925 26.4262 17.18 26.1741 17.18Z" fill="#614BF2"/>
</svg>
