<svg width="45" height="45" viewBox="0 0 45 45" fill="none" xmlns="http://www.w3.org/2000/svg">
<g clip-path="url(#clip0_169_2)">
<path d="M9.75218 0.161454C18.5056 -0.292662 27.6734 0.371504 36.4542 0.232038C40.64 0.755037 44.0433 3.97892 44.7686 8.11274C45.1598 17.4867 44.954 26.9305 44.8779 36.3198C44.1228 41.4911 40.2718 44.6325 35.0977 44.8672C26.3955 45.2609 17.3456 44.6436 8.61859 44.7813C3.65969 44.2048 -0.0315094 39.9315 0.0274336 34.9634C0.159842 25.9338 -0.224569 16.8617 0.227327 7.85676C1.3387 3.11916 4.9291 0.411473 9.75218 0.161454ZM9.06878 3.39299C6.00801 3.70679 3.56914 6.1381 3.2787 9.19445L3.27442 35.7288C3.54949 38.9212 6.0866 41.4163 9.29686 41.6391C18.3707 41.5617 27.4684 41.7785 36.5285 41.5285C39.38 40.9239 41.5208 38.5666 41.7224 35.6437C41.6335 26.6167 41.8838 17.559 41.5951 8.55069C41.0466 5.70269 38.5967 3.58263 35.6956 3.36833L9.06963 3.39299H9.06878Z" fill="#614BF2"/>
<path d="M21.3698 9.77113C32.1983 8.88927 39.2928 21.0696 32.9039 29.9274C27.0736 38.0097 14.5888 36.6269 10.6943 27.4919C7.32004 19.5771 12.7795 10.4719 21.3698 9.77199V9.77113ZM21.2844 13.0027C15.1535 13.6252 11.3171 20.2872 13.5261 25.9484C15.8907 32.0067 23.666 34.0638 28.6882 29.8135C35.9475 23.6701 30.8656 12.0307 21.2836 13.0027H21.2844Z" fill="#614BF2"/>
<path d="M34.8618 8.23524C37.3246 7.78283 37.5697 11.0969 35.5025 11.3452C33.4651 11.5901 33.0969 8.55925 34.8618 8.23524Z" fill="#614BF2"/>
</g>
<defs>
<clipPath id="clip0_169_2">
<rect width="45" height="45" fill="white"/>
</clipPath>
</defs>
</svg>
