<svg width="40" height="45" viewBox="0 0 40 45" fill="none" xmlns="http://www.w3.org/2000/svg">
<path d="M29.0388 1.25451e-05C29.0667 0.157868 29.0085 0.328057 29.0085 0.474813C29.0224 4.5211 31.926 8.36267 35.6697 9.93136C37.0108 10.4937 38.5315 10.8822 40.0004 10.8218V18.4963C38.1064 18.3766 36.2314 18.1781 34.4146 17.6355C33.1558 17.2593 31.7653 16.713 30.633 16.0594C30.1649 15.7893 29.5943 15.317 29.1375 15.1036C29.1034 15.0876 29.0806 15.0691 29.0388 15.0789V31.4454C28.4619 41.0696 18.715 47.5035 9.3058 44.0627C6.33389 42.9763 3.67194 40.77 2.05631 38.1111C-2.36804 30.8312 0.610202 21.3882 8.46825 17.8759C10.9632 16.7599 13.7592 16.3566 16.4908 16.6785V24.5429C15.9581 24.4171 15.4141 24.2753 14.8625 24.2444C8.89968 23.909 5.46724 30.7918 9.40954 35.1464C13.2987 39.4418 20.4356 37.106 21.0783 31.5218C21.1504 21.0491 21.091 10.5677 21.1087 0.0925062L21.1517 -0.0012207H29.0388V1.25451e-05Z" fill="#614BF2"/>
</svg>
