<?xml version="1.0" encoding="UTF-8"?><svg id="Calque_1" xmlns="http://www.w3.org/2000/svg" viewBox="0 0 38.4 43.21"><defs><style>.cls-1{fill:#fff;}</style></defs><path class="cls-1" d="M27.89,43.21c-4.08.02-7.94-1.82-10.49-5L2.93,20.08C-1.69,14.29-.75,5.85,5.04,1.23h0C6.19.29,7.67-.14,9.14.04c1.47.16,2.82.9,3.74,2.06l.07.09,4.05,6.34c.87,1.36.57,3.16-.69,4.17l-2,1.58c-1.17.81-2.11,1.9-2.73,3.18-.39,1.03-.16,2.2.61,3l6.83,8.54c1.09,1.36,2.72,2.35,6.53-.69l2-1.58c1.26-1.01,3.09-.9,4.22.25l5.36,5.42c1.95,2.39,1.6,5.91-.79,7.87-.03.02-.05.04-.08.06h0c-2.38,1.88-5.33,2.9-8.37,2.88ZM8.52,2c-.81,0-1.6.28-2.23.79C1.39,6.72.59,13.87,4.5,18.79l14.46,18.14c3.94,4.89,11.08,5.69,16,1.79,1.53-1.23,1.79-3.45.59-5l-5.25-5.31c-.42-.39-1.05-.42-1.51-.08l-2,1.58c-3.9,3.12-7,3.25-9.33.38l-6.78-8.55c-1.23-1.36-1.59-3.29-.92-5,.75-1.6,1.91-2.98,3.35-4l2-1.57c.46-.37.57-1.04.25-1.54l-4-6.29c-.59-.72-1.44-1.18-2.37-1.28-.15-.03-.31-.05-.47-.06Z"/></svg>