<svg width="190" height="2618" viewBox="0 0 190 2618" fill="none" xmlns="http://www.w3.org/2000/svg">
<g clip-path="url(#clip0_431_4)" filter="url(#filter0_d_431_4)">
<path d="M120.624 17.6324L21.9297 53.6099L80.9137 93.9413L120.624 17.6324Z" fill="url(#paint0_linear_431_4)"/>
<path d="M122.72 15.7914L81.2842 95.422L19.7346 53.3344L122.721 15.7934L122.72 15.7914ZM80.5418 92.4634L118.524 19.4722L24.1239 53.8833L80.5418 92.4634Z" fill="black"/>
</g>
<g filter="url(#filter1_d_431_4)">
<path d="M122.04 2493.79L46.7469 2516.94L172.587 2597.06L122.04 2493.79Z" fill="url(#paint1_linear_431_4)"/>
<path d="M44.0009 2516.57L122.653 2492.39L175.455 2600.27L44.0009 2516.57ZM121.435 2495.2L49.5015 2517.32L169.727 2593.86L121.435 2495.2Z" fill="black"/>
</g>
<g filter="url(#filter2_d_431_4)">
<path d="M74.3313 951.898L46.5212 905.17L89.4161 878.047L151.725 888.011L74.3313 951.898Z" fill="url(#paint2_linear_431_4)"/>
<path d="M45.2298 905.028L45.6257 905.693L73.9452 953.275L74.9203 952.471L153.73 887.415L89.362 877.123L45.2278 905.029L45.2298 905.028ZM74.7196 950.516L47.8136 905.312L89.4702 878.972L149.719 888.604L74.7187 950.514L74.7196 950.516Z" fill="black"/>
</g>
<defs>
<filter id="filter0_d_431_4" x="0.734619" y="-0.939697" width="156.305" height="128.548" filterUnits="userSpaceOnUse" color-interpolation-filters="sRGB">
<feFlood flood-opacity="0" result="BackgroundImageFix"/>
<feColorMatrix in="SourceAlpha" type="matrix" values="0 0 0 0 0 0 0 0 0 0 0 0 0 0 0 0 0 0 127 0" result="hardAlpha"/>
<feOffset dx="-3" dy="1"/>
<feGaussianBlur stdDeviation="8"/>
<feComposite in2="hardAlpha" operator="out"/>
<feColorMatrix type="matrix" values="0 0 0 0 0 0 0 0 0 0 0 0 0 0 0 0 0 0 0.25 0"/>
<feBlend mode="normal" in2="BackgroundImageFix" result="effect1_dropShadow_431_4"/>
<feBlend mode="normal" in="SourceGraphic" in2="effect1_dropShadow_431_4" result="shape"/>
</filter>
<filter id="filter1_d_431_4" x="25.0009" y="2477.39" width="163.454" height="139.879" filterUnits="userSpaceOnUse" color-interpolation-filters="sRGB">
<feFlood flood-opacity="0" result="BackgroundImageFix"/>
<feColorMatrix in="SourceAlpha" type="matrix" values="0 0 0 0 0 0 0 0 0 0 0 0 0 0 0 0 0 0 127 0" result="hardAlpha"/>
<feOffset dx="-3" dy="1"/>
<feGaussianBlur stdDeviation="8"/>
<feComposite in2="hardAlpha" operator="out"/>
<feColorMatrix type="matrix" values="0 0 0 0 0 0 0 0 0 0 0 0 0 0 0 0 0 0 0.25 0"/>
<feBlend mode="normal" in2="BackgroundImageFix" result="effect1_dropShadow_431_4"/>
<feBlend mode="normal" in="SourceGraphic" in2="effect1_dropShadow_431_4" result="shape"/>
</filter>
<filter id="filter2_d_431_4" x="26.2278" y="862.124" width="140.502" height="108.151" filterUnits="userSpaceOnUse" color-interpolation-filters="sRGB">
<feFlood flood-opacity="0" result="BackgroundImageFix"/>
<feColorMatrix in="SourceAlpha" type="matrix" values="0 0 0 0 0 0 0 0 0 0 0 0 0 0 0 0 0 0 127 0" result="hardAlpha"/>
<feOffset dx="-3" dy="1"/>
<feGaussianBlur stdDeviation="8"/>
<feComposite in2="hardAlpha" operator="out"/>
<feColorMatrix type="matrix" values="0 0 0 0 0 0 0 0 0 0 0 0 0 0 0 0 0 0 0.25 0"/>
<feBlend mode="normal" in2="BackgroundImageFix" result="effect1_dropShadow_431_4"/>
<feBlend mode="normal" in="SourceGraphic" in2="effect1_dropShadow_431_4" result="shape"/>
</filter>
<linearGradient id="paint0_linear_431_4" x1="92.0248" y1="89.6765" x2="70.9582" y2="34.7913" gradientUnits="userSpaceOnUse">
<stop stop-color="#614BF2"/>
<stop offset="1" stop-color="#614B8E"/>
</linearGradient>
<linearGradient id="paint1_linear_431_4" x1="115.986" y1="2586.1" x2="95.817" y2="2493.04" gradientUnits="userSpaceOnUse">
<stop stop-color="#1A14D9"/>
<stop offset="1" stop-color="#1A1493"/>
</linearGradient>
<linearGradient id="paint2_linear_431_4" x1="88.7987" y1="878.397" x2="116.824" y2="927.783" gradientUnits="userSpaceOnUse">
<stop stop-color="#614BF2"/>
<stop offset="1" stop-color="#614B8E"/>
</linearGradient>
<clipPath id="clip0_431_4">
<rect width="61.3483" height="109.6" fill="white" transform="translate(41.7182 110.609) rotate(-110.998)"/>
</clipPath>
</defs>
</svg>
