<?xml version="1.0" encoding="UTF-8"?>
<svg id="encrage" xmlns="http://www.w3.org/2000/svg" viewBox="0 0 1702.57 536.4">
  <g>
    <path d="M111.2,304.74c-.43,1.28-1,2.51-1.7,3.66-3.78,6.52-8.44,12.5-13.85,17.75-1.23,1.17-2.66,2.11-4,3.16-1.72,1.35-3.66,1.38-5.67.92-2.19-.51-4.05-1.67-5.89-2.9-4.68-3.12-9.51-5.96-14.88-7.73-4.05-1.33-8.11-2.56-12.38-3-5.11-.51-10.26.11-15.1,1.8-1.05.25-1.83,1.12-1.99,2.19-.66,3.09-.15,6.31,1.44,9.05,1.52,2.75,3.58,5.16,6.06,7.09,4.6,3.57,9.34,6.95,14.04,10.37,4.08,2.96,8.31,5.73,12.25,8.86,2.36,1.93,4.5,4.12,6.39,6.51,2.91,3.6,3.52,7.81,2.35,12.28-1.18,4.42-3.34,8.51-6.32,11.97-3.34,3.95-6.92,7.72-10.55,11.41-6.68,6.78-13.47,13.46-20.21,20.18l-3.17,2.88c4.75-1.01,9.52,1.03,13.68,3.29,6.45,3.51,12.33,7.87,18.18,12.25,5.31,3.97,10.81,7.58,16.93,10.19,6.64,2.83,10.65,3.48,14.1.53,3.22-2.75-9.28-3.67,2.3-14.85.88-.91,1.85-1.73,2.83-2.64l.87.83c-.08.21-.2.41-.33.6-3.77,5.06,8.94.72-1.45,17.53-4.2,6.8-12.27,18.3-23,22.55-6.93,2.75-13.9,1.34-20.58-1.37-4.78-2.03-9.29-4.64-13.43-7.76-4.93-3.6-9.9-7.16-14.89-10.67-6.12-4.3-12.88-9.48-20.23-7.73-.58.26-1.14.55-1.69.83-1.07.55-1.1,1.32-.43,2.33.35.53.83.97,1.21,1.48,1.09,1.38,1.26,3.27.46,4.83-.71,1.69-2.36,2.8-4.19,2.82-2.03.1-3.97-.83-5.17-2.47-1.2-1.64-1.49-3.78-.77-5.68.76-2.23,2.33-3.91,4.01-5.43,5.1-4.62,10.29-9.16,15.43-13.75,5.72-5.11,11.42-10.24,17.11-15.39,4.18-3.79,7.69-8.17,11.02-12.69.93-1.26,1.74-2.59,2.45-3.99,1.2-2.36,1.36-4.84-.05-7.13-1.15-2.03-2.55-3.92-4.15-5.61-2.51-2.41-5.19-4.63-8.02-6.67-3.9-2.85-8.01-5.4-11.93-8.22-3.57-2.57-7.13-5.19-10.42-8.09-2.1-1.91-3.95-4.08-5.49-6.46-2.65-3.76-3.03-8.68-.98-12.8,1.35-2.81,2.97-5.49,4.83-7.99,1.87-2.5,3.92-4.87,6.14-7.07,7.43-7.54,14.94-15,22.44-22.47,4.26-4.24,8.91-7.95,14.53-10.25,11.05-4.52,21.82-3.93,32.09,2.18,4.2,2.5,8.13,5.47,12.18,8.23.51.39,1.04.74,1.6,1.05,1.07.52,1.79.26,2.85-1.16-1.42-.76-2.66-1.42-3.89-2.07-2.74-1.46-3.86-3.61-3.5-6.67.39-3.26,2.76-5.06,5.97-4.45,2.55.36,4.61,2.25,5.18,4.76.78,2.99.32,5.94-.62,8.8Z" fill="#fff"/>
    <path d="M134.74,412.09c-.03.41-.03.83,0,1.24,1.32,6.58,3.72,12.72,8.13,17.84,8.89,10.32,20.07,13.95,33.33,10.79,3.95-1.01,7.59-2.97,10.6-5.72,3.37-2.96,3.31-4.68-.02-7.63-1.44-1.27-2.91-2.49-3.57-4.41-.76-2.18-.05-4.81,1.89-6.02,1.89-1.19,4-1.59,6.11-.67,2.76,1.21,4.62,3.17,5.05,6.34.31,2.46.07,4.97-.71,7.32-2.54,8.2-7.27,15.06-13,21.26-4.73,5.12-9.95,9.75-15.59,13.84-13.33,9.71-31.89,6.45-42.46-4.97-5.16-5.56-8.56-12.53-9.78-20.01-.8-4.26-1.22-8.58-1.25-12.91.08-10.58.49-21.16.93-31.73.18-1.91.67-3.77,1.45-5.52,2.18-5.59,5.43-10.6,8.8-15.53,7.09-10.23,15.19-19.72,24.17-28.32.62-.69,1.54-1.04,2.46-.93,1.91.12,3.82.35,5.7.69,6.11,1.47,11.97,3.67,17.12,7.35,6.08,4.33,12.08,8.75,18.02,13.26,2.83,2.15,5.7,3.74,9.39,2.99.11-.02.24.1.53.22-1.31,3-2.81,5.86-5.14,8.21-4.23,4.21-8.11,8.77-11.58,13.62-3.14,4.4-5.76,9.14-7.83,14.13-.93,2.27-1.28,4.78-1.84,7.19-.25,1.1-.39,2.23-.63,3.58-.66-.31-1.23-.52-1.75-.82-5-2.87-10.49-4.79-16.19-5.67-2.6-.4-5.23-.54-7.85-.4-4.81.28-9.59.87-14.5,1.35ZM135.42,401.87c2.53,2.03,5.45,2.84,8.56,1.48,1.9-.78,3.69-1.81,5.32-3.05,4.07-3.27,7.3-7.34,10.26-11.61,2.06-2.98,1.95-3.82-.97-5.97-4.34-3.2-8.77-6.29-13.23-9.32-1.47-1-3.06-1.81-4.73-2.4-3.89-1.36-6.46-.18-8,3.66-.41,1.21-.63,2.47-.65,3.74-.11,1.55-.03,3.12-.03,4.68h-.07c.32,4.19.62,8.36.97,12.53.03,1.14.23,2.26.6,3.34.41,1.12,1.09,2.12,1.97,2.93Z" fill="#fff"/>
    <path d="M281.37,437.44c-1.68,2.66-3.63,5.14-5.82,7.4-7.08,7.31-14.33,14.46-21.52,21.67-.84.84-1.71,1.67-2.62,2.44-4.01,3.39-8.62,4.31-13.74,3.12-3.38-.82-6.56-2.32-9.33-4.42-2.5-1.83-4.88-3.81-7.28-5.76-2.78-2.27-5.47-4.65-8.31-6.84-1.54-1.12-3.17-2.1-4.87-2.95-1.47-.78-3.13-.81-4.78-.69-.81,0-1.5.59-1.63,1.38-.22.95.5,1.37,1.24,1.68.4.15.81.26,1.23.33.28.06.57.03.85.07,3.48.46,5.57,2.79,5.13,5.7-.4,2.63-3.54,4.7-6.6,4.34-3.28-.29-5.89-2.87-6.23-6.15-.35-3,.31-6.02,1.88-8.6,5.27-8.59,12.3-15.95,20.64-21.59,5-3.36,10.24-3.63,15.33-.25,2.81,1.86,5.37,4.09,8.01,6.2,3.24,2.59,6.33,5.38,9.69,7.81,2.15,1.54,4.66,2.61,7.05,3.82.85.34,1.73.61,2.63.81.86-2.95,1.35-6,1.48-9.06.47-5.13.11-10.29-1.07-15.3-1-4.17-3.23-7.95-6.4-10.84-2.53-2.31-5.72-3.75-9.13-4.11-1.77-.2-3.55.05-5.21.71-3.79,1.44-6.86,3.85-9.76,6.55-2.31,2.15-4.73,4.2-7.12,6.27-1.96,1.83-4.77,2.42-7.3,1.54-4.51-1.36-8.88-2.94-12.63-5.84-3.86-2.99-5.35-6.9-4.59-11.61.22-1.44.62-2.85,1.2-4.19,1.37-3.04,2.66-6.16,4.46-8.96,3.31-5.17,6.75-10.29,10.53-15.13,6.85-8.86,15.15-16.5,24.53-22.62,3.8-2.46,7.84-4.52,12.07-6.13,6.36-2.43,12.62-2.36,18.79.52,6.11,2.85,9.17,9.62,12.28,17.97l-26.66,20.29c-1.22-8.25-7.13-13.21-9.93-14.66-5.31-2.76-10.87-2.76-16.46-.59-4.99,1.94-8.35,7.43-6.69,13.73.87,3.36,3.03,6.25,6.01,8.03,4.18,2.64,8.87,3.99,13.54,5.42,1.11.34,2.02-.05,2.95-.71,5.37-3.8,10.98-7.18,17.21-9.49,3.09-1.26,6.36-2.04,9.68-2.31,5.05-.27,8.77,1.79,11.36,5.96,1.71,2.88,2.79,6.1,3.15,9.43,1.65,12.65-.31,24.64-7.23,35.62Z" fill="#fff"/>
    <path d="M437.26,304.74c-.43,1.28-1,2.51-1.7,3.66-3.78,6.52-8.44,12.5-13.85,17.75-1.23,1.17-2.66,2.11-4,3.16-1.72,1.35-3.66,1.38-5.67.92-2.19-.51-4.05-1.67-5.89-2.9-4.68-3.12-9.51-5.96-14.88-7.73-4.05-1.33-8.11-2.56-12.38-3-5.11-.51-10.26.11-15.1,1.8-1.05.25-1.83,1.12-1.99,2.19-.66,3.09-.15,6.31,1.44,9.05,1.52,2.75,3.58,5.16,6.06,7.09,4.6,3.57,9.34,6.95,14.04,10.37,4.08,2.96,8.31,5.73,12.25,8.86,2.36,1.93,4.5,4.12,6.39,6.51,2.91,3.6,3.52,7.81,2.35,12.28-1.18,4.42-3.34,8.51-6.32,11.97-3.34,3.95-6.92,7.72-10.55,11.41-6.68,6.78-13.47,13.46-20.21,20.18l-3.17,2.88c4.75-1.01,9.52,1.03,13.68,3.29,6.45,3.51,12.33,7.87,18.18,12.25,5.31,3.97,10.81,7.58,16.93,10.19,6.64,2.83,10.65,3.48,14.1.53,3.22-2.75-9.28-3.67,2.3-14.85.88-.91,1.85-1.73,2.83-2.64l.87.83c-.08.21-.2.41-.33.6-3.77,5.06,8.94.72-1.45,17.53-4.2,6.8-12.27,18.3-23,22.55-6.93,2.75-13.9,1.34-20.58-1.37-4.78-2.03-9.29-4.64-13.43-7.76-4.93-3.6-9.9-7.16-14.89-10.67-6.12-4.3-12.88-9.48-20.23-7.73-.58.26-1.14.55-1.69.83-1.07.55-1.1,1.32-.43,2.33.35.53.83.97,1.21,1.48,1.09,1.38,1.26,3.27.46,4.83-.71,1.69-2.36,2.8-4.19,2.82-2.03.1-3.97-.83-5.17-2.47-1.2-1.64-1.49-3.78-.77-5.68.76-2.23,2.33-3.91,4.01-5.43,5.1-4.62,10.29-9.16,15.43-13.75,5.72-5.11,11.42-10.24,17.11-15.39,4.18-3.79,7.69-8.17,11.02-12.69.93-1.26,1.74-2.59,2.45-3.99,1.2-2.36,1.36-4.84-.05-7.13-1.15-2.03-2.55-3.92-4.15-5.61-2.51-2.41-5.19-4.63-8.02-6.67-3.9-2.85-8.01-5.4-11.93-8.22-3.57-2.57-7.13-5.19-10.42-8.09-2.1-1.91-3.95-4.08-5.49-6.46-2.65-3.76-3.03-8.68-.98-12.8,1.35-2.81,2.97-5.49,4.83-7.99,1.87-2.5,3.92-4.87,6.14-7.07,7.43-7.54,14.94-15,22.44-22.47,4.26-4.24,8.91-7.95,14.53-10.25,11.05-4.52,21.82-3.93,32.09,2.18,4.2,2.5,8.13,5.47,12.18,8.23.51.39,1.04.74,1.6,1.05,1.07.52,1.79.26,2.85-1.16-1.42-.76-2.66-1.42-3.89-2.07-2.74-1.46-3.86-3.61-3.5-6.67.39-3.26,2.76-5.06,5.97-4.45,2.55.36,4.61,2.25,5.18,4.76.78,2.99.32,5.94-.62,8.8Z" fill="#fff"/>
    <path d="M524.2,463.32c-3.71,5.97-9.3,8.24-16.22,8-2.15-.09-4.28-.44-6.35-1.02-6.3-1.76-9.7-6.71-9.68-13.25.03-8.34.85-15.75-.29-15.75-7.28,0-1.07,9.04-5.02,19.66-4.22,8.89-12.31,11.49-21.83,10.95-1.28-.07-10.39.04-16.37-5.04-5.53-4.58-8.77-11.36-8.87-18.53-.18-6.24.2-12.5.58-18.74.22-3.19.71-6.35,1.45-9.47,1.29-5.62,4.13-10.3,9.3-13.4,5.05-3,10.38-5.49,15.92-7.43,1.39-.52,2.74-1.13,4.04-1.84.65-.47,1.26-1,1.81-1.59-1.66-.59-2.88-1.1-4.14-1.47-6.16-1.86-12.19-4.17-18.02-6.89-1.85-.86-3.59-1.95-5.17-3.24-2.11-1.68-2.85-3.99-1.88-6.56.62-1.77,1.45-3.47,2.47-5.04,5.37-7.72,11.44-14.92,18.14-21.52,2.44-2.4,5.64-3.88,9.05-4.16,4.42-.5,8.53.25,12.72,1.65,9.95,3.32,18.17,9.33,26.35,15.47,2.14,1.61,4.31,3.18,6.43,4.82,2.09,1.77,4.85,2.52,7.54,2.07.37-.11.77-.05,1.1.16.16.16.19.41,0,.81-2.34,5.07-6.2,9.2-9.05,13.98-4.97,8.35-2.89,37.48-3.24,44.85-.14,2.86-.16,5.69.97,8.42.96,2.63,3.19,4.6,5.91,5.23,1.5.37,2.75.04,3.04-.74.3-.79-.45-1.77-1.89-2.45-.57-.27-1.19-.45-1.78-.69-1.71-.72-3.05-2.1-3.71-3.83-.96-2.21.57-4.58,3.07-4.89,2.08-.35,4.18.52,5.41,2.23,1.5,1.86,2.48,4.08,2.85,6.44,1.15,8.12-.26,15.76-4.66,22.81ZM471.3,390.07c2.39,1.25,4.63,2.72,5.58,5.5.43-.14.85-.31,1.27-.5,3.45-1.9,6.68-4.2,9.61-6.84.56-.53,1-1.17,1.3-1.87.78-1.63.53-2.9-.87-4.12-1.48-1.29-3.03-2.5-4.58-3.71-3.42-2.67-7.49-4.21-11.39-6-6-2.76-9.63-1.27-13.24,3.55-1.73,2.31-1.6,5.49.58,7.36,1.53,1.24,3.18,2.32,4.92,3.22,2.22,1.22,4.57,2.22,6.82,3.4h0ZM491.64,405.52c.39-3.52-3.13-6.69-6.7-5.39-1.53.55-3.09,1.04-4.6,1.62-7.76,2.99-13.12,8.15-14.95,16.32-.54,2.43-.7,4.94-1.04,7.41l.13.02c0,1.46-.08,2.93.02,4.37.16,3.07,1.2,6.04,3.01,8.53,3.75,5.13,11.51,6.47,17.27,2.56,3.98-2.7,6-6.33,6-11.08,0-2.64.09-5.28.17-7.92.18-5.49.07-11,.68-16.44h0Z" fill="#fff"/>
    <path d="M613.1,365.12c-.49,1.54-1.15,3.03-1.98,4.43-3.15,5.05-6.87,9.72-11.08,13.93-1.92,2.02-4.39,3.43-7.09,4.08-1.65.51-3.44.29-4.92-.61-2.49-1.62-5-3.23-7.34-5.05-2.45-1.91-4.7-4.09-7.07-6.12-.8-.7-1.65-1.33-2.54-1.91-1.06-.63-2.32-.78-3.5-.44-1.12.26-2.83,2.35-2.85,4.3-.07,7.98-.05,19.59.01,27.57.1,12.29.24,24.58.41,36.88.05,3.46.41,6.92.38,10.37-.05,4.65,5.36,8.09,9.35,4.71.22-.11.45-.2.69-.25-.22.92-.5,1.81-.83,2.69-3.13,6.6-8.15,10.74-15.6,11.6-1.48.17-2.97.34-4.45.37-5.21.11-8.91-2.57-11.58-6.7-2.31-3.57-3.18-7.71-3.44-11.89-.23-3.72-.1-7.47-.13-11.21-.06-7.42-.12-14.84-.17-22.25-.08-13.35-.16-36.87-.24-50.22l-7.29-7.22,21.08-15.36,10,21.66c.96-7.03,4.79-14.15,5.89-15.14,2.97-3.01,4.96-4.77,8.18-6.03,3.1-1.21,6.1-1.17,8.96.65.97.58,1.9,1.24,2.75,1.99,3.89,3.61,7.75,7.27,11.56,10.96,1.49,1.44,2.95,2.91,4.95,3.57,1.08.29,2.2.44,3.32.44.84.04,1.56-.31,1.61-1.31.14-.89-.41-1.73-1.28-1.96-.76-.19-1.52-.33-2.3-.43-.42-.07-.85-.07-1.27-.14-1.76-.27-3.33-.79-3.84-2.79-.59-2.32.08-4.43,1.82-5.69,3.14-2.26,7.29-1.15,9.07,2.62,1.54,3.07,1.81,6.63.75,9.9Z" fill="#fff"/>
    <path d="M756.48,471.83c-1.67,1.49-5.07,1.89-12.64,1.52-1.25,2.08-2.54,4.2-3.79,6.33-2.26,3.85-5.14,7.3-8.52,10.21-4.38,3.81-9.61,6.49-15.26,7.82-1.39.28-2.81.36-4.22.25-1.25-.06-1.52-.86-.74-1.82.37-.42.76-.81,1.19-1.18,5.87-5.32,9.05-12.03,10.66-19.5,1.65-7.68,2.24-15.47,2.55-23.29.15-3.9-.13-7.82.19-11.7.65-8.09.21-16.17.15-24.25-.04-4.59-.42-9.18-.54-13.78-.12-4.66-.13-9.32-.12-13.98.03-1.45-.29-2.88-.95-4.17-3.24-6.17-7.49-11.45-13.82-14.98-2.34-1.3-4.85-2.42-7.5-1.87-6.28,1.3-4.94,25.67-4.92,28.36.25,27.65.49,31.43.77,59.08.02,1.57.26,3.13.7,4.64,1,3.37,4.07,4.24,6.94,2.08.43-.33.84-.69,1.57-1.3-.11.62-.26,1.23-.47,1.83-2.99,6.31-7.76,10.11-15.24,10.36-4.77.16-8.92-1.32-12.75-3.86-1.88-1.23-3.34-3-4.18-5.09-1.08-2.46-1.69-5.09-1.81-7.78-.13-8.09-.35-16.18-.48-24.27-.08-5.07,0-10.14-.06-15.21-.11-10.43-.26-20.85-.38-31.28-.1-.24-.21-.49-.33-.72-3.24-6.17-7.49-11.45-13.82-14.98-2.26-1.34-4.87-1.99-7.5-1.87-.63.04-1.26.15-1.87.35-2.67.87-3.08,1.46-3.05,4.15.23,27.65.49,55.3.77,82.94.02,1.57.26,3.14.7,4.64,1,3.37,4.07,4.24,6.94,2.08.43-.33.84-.69,1.57-1.3-.11.62-.26,1.23-.47,1.83-2.99,6.31-7.76,10.11-15.24,10.36-4.77.16-8.92-1.32-12.75-3.87-1.88-1.23-3.34-3-4.18-5.09-1.08-2.46-1.69-5.09-1.81-7.78-.13-8.09-.35-16.18-.48-24.27-.08-5.07,0-10.14-.06-15.21-.12-11.73-.31-23.46-.42-35.19-.06-5.56-.12-5.17-.15-10.73l-7.39-7.41,22.5-16.15c3.78,6.05,10.39,16.13,10.39,16.13.6-.46.86-.65,1.1-.86,3.19-2.82,6.36-5.67,9.58-8.46,3-2.46,6.37-4.42,10-5.81,3.66-1.56,7.86-1.21,11.21.96,3.58,2.16,13.99,14.48,16.73,17.37l3.34-3.19c.6-.46.86-.65,1.1-.86,3.19-2.82,6.36-5.67,9.58-8.46,3-2.46,6.37-4.42,10-5.81,3.66-1.56,7.86-1.21,11.21.96,3.58,2.16,15.14,15.86,18.61,19.31.97,1.01,2.05,1.9,3.22,2.66.94.47,1.94.79,2.98.93,1.3.29,1.54.75.75,1.8-.25.33-.59.6-.83.93-1.08,1.45-2.2,2.86-3.18,4.37-1.02,1.57-1.55,3.41-1.52,5.29.04,8.03.06,16.05.15,24.08.17,16.12.31,32.23.63,48.35.11,5.37,1.67,10.41,5.34,14.65.14.22.26.45.34.69Z" fill="#fff"/>
    <path d="M781.94,412.09c-.03.41-.03.83,0,1.24,1.32,6.58,3.72,12.72,8.13,17.84,8.89,10.32,20.07,13.95,33.33,10.79,3.95-1.01,7.59-2.97,10.6-5.72,3.37-2.96,3.31-4.68-.02-7.63-1.44-1.27-2.91-2.49-3.57-4.41-.76-2.18-.05-4.81,1.89-6.02,1.89-1.19,4-1.59,6.11-.67,2.76,1.21,4.62,3.17,5.05,6.34.31,2.46.07,4.97-.71,7.32-2.54,8.2-7.27,15.06-13,21.26-4.73,5.12-9.95,9.75-15.59,13.84-13.33,9.71-31.89,6.45-42.46-4.97-5.16-5.56-8.56-12.53-9.78-20.01-.8-4.26-1.22-8.58-1.25-12.91.08-10.58.49-21.16.93-31.73.18-1.91.67-3.77,1.45-5.52,2.18-5.59,5.43-10.6,8.8-15.53,7.09-10.23,15.19-19.72,24.17-28.32.62-.69,1.54-1.04,2.46-.93,1.91.12,3.82.35,5.7.69,6.11,1.47,11.97,3.67,17.12,7.35,6.08,4.33,12.08,8.75,18.02,13.26,2.83,2.15,5.7,3.74,9.39,2.99.11-.02.24.1.53.22-1.31,3-2.81,5.86-5.14,8.21-4.23,4.21-8.11,8.77-11.58,13.62-3.14,4.4-5.76,9.14-7.83,14.13-.93,2.27-1.28,4.78-1.84,7.19-.25,1.1-.39,2.23-.63,3.58-.66-.31-1.23-.52-1.75-.82-5-2.87-10.49-4.79-16.19-5.67-2.6-.4-5.23-.54-7.85-.4-4.81.28-9.59.87-14.5,1.35ZM782.62,401.87c2.53,2.03,5.45,2.84,8.56,1.48,1.9-.78,3.69-1.81,5.32-3.05,4.07-3.27,7.3-7.34,10.26-11.61,2.06-2.98,1.95-3.82-.97-5.97-4.34-3.2-8.77-6.29-13.23-9.32-1.47-1-3.06-1.81-4.73-2.4-3.89-1.36-6.46-.18-8,3.66-.41,1.21-.63,2.47-.65,3.74-.11,1.55-.03,3.12-.03,4.68h-.07c.32,4.19.62,8.36.97,12.53.03,1.14.23,2.26.6,3.34.41,1.12,1.09,2.12,1.97,2.93Z" fill="#fff"/>
    <path d="M928.57,437.44c-1.68,2.66-3.63,5.14-5.82,7.4-7.09,7.31-14.33,14.46-21.52,21.67-.84.84-1.71,1.67-2.62,2.44-4.01,3.39-8.62,4.31-13.73,3.12-3.38-.82-6.56-2.32-9.34-4.42-2.49-1.83-4.88-3.81-7.28-5.76-2.79-2.27-5.47-4.65-8.31-6.84-1.54-1.12-3.17-2.1-4.87-2.95-1.48-.78-3.13-.81-4.79-.69-.81,0-1.5.59-1.63,1.38-.22.95.5,1.37,1.24,1.68.4.15.81.26,1.23.33.28.06.56.03.85.07,3.48.46,5.57,2.79,5.13,5.7-.4,2.63-3.54,4.7-6.6,4.34-3.28-.29-5.89-2.87-6.23-6.15-.35-3,.31-6.02,1.88-8.6,5.27-8.59,12.3-15.95,20.64-21.59,5-3.36,10.24-3.63,15.33-.25,2.81,1.86,5.37,4.09,8.01,6.2,3.24,2.59,6.33,5.38,9.69,7.81,2.15,1.54,4.66,2.61,7.05,3.82.86.34,1.74.61,2.63.81.86-2.95,1.35-6,1.48-9.06.47-5.13.11-10.29-1.07-15.3-1-4.17-3.23-7.95-6.4-10.84-2.53-2.31-5.72-3.75-9.13-4.11-1.77-.2-3.55.05-5.2.71-3.79,1.44-6.86,3.85-9.77,6.55-2.31,2.15-4.73,4.2-7.12,6.27-1.96,1.83-4.77,2.42-7.3,1.54-4.51-1.36-8.88-2.94-12.63-5.84-3.86-2.99-5.35-6.9-4.59-11.61.22-1.44.62-2.85,1.2-4.19,1.37-3.04,2.66-6.16,4.46-8.96,3.31-5.17,6.75-10.29,10.53-15.13,6.85-8.86,15.15-16.5,24.53-22.62,3.8-2.46,7.84-4.52,12.07-6.13,6.36-2.43,12.62-2.36,18.79.52,6.11,2.85,9.17,9.62,12.28,17.97l-26.66,20.29c-1.22-8.25-7.13-13.21-9.93-14.66-5.31-2.76-10.87-2.76-16.46-.59-4.99,1.94-8.35,7.43-6.68,13.73.87,3.36,3.03,6.25,6.01,8.03,4.18,2.64,8.87,3.99,13.54,5.42,1.11.34,2.02-.05,2.96-.71,5.37-3.8,10.98-7.18,17.21-9.49,3.09-1.26,6.36-2.04,9.69-2.31,5.05-.27,8.77,1.79,11.36,5.96,1.71,2.88,2.79,6.1,3.14,9.43,1.65,12.65-.31,24.64-7.23,35.62Z" fill="#fff"/>
    <path d="M1066.95,465.72c-3.92,6.21-11.45,8.91-18.58,7.61-8.12-1.48-14.14-7.61-14.93-15.8-.05-.49-.1-1.83-.15-3.83l-11.15,10.42c-2.16,1.84-4.25,3.77-6.44,5.59-2,1.66-4.25,2.02-6.8,1.34-2.36-.58-4.53-1.73-6.34-3.34-4.03-3.69-7.96-7.5-11.94-11.26-1.44-1.37-2.83-2.8-4.34-4.09-1.53-1.44-3.64-2.08-5.71-1.74-.36.05-.71.05-1.07.01-.91-.07-1.35-.59-.99-1.44,2.16-5.23,1.81-10.74,1.82-16.21.02-9.53-.09-19.06,0-28.59.04-3.55.41-7.09.76-10.62.37-3.26,1.36-6.43,2.91-9.32,2.71-5.26,5.72-10.35,10.23-14.32,6.55-5.76,13.1-11.5,19.66-17.24l-.06-.07c-.8-.84-1.57-1.69-2.32-2.57-3.43-3.9-6.32-8.25-8.58-12.93-2.3-4.85-4.15-10.27-3.35-15.71,1.33-9.11,7.94-17.67,13.44-24.64,1.6-2.19,3.73-3.95,6.18-5.1,3.49-1.66,7.66-.52,9.82,2.68,1.6,2.33,1.61,4.82.44,7.28-.4.74-1.04,1.32-1.81,1.67-1.35.58-2.89.55-4.22-.08s-2.32-1.8-2.73-3.22c-.44-1.54-.77-3.12-1.16-4.71-.2-1.09-1.81-.56-1.3,2.12.55,2.78,1.36,5.51,2.42,8.14,4.99,12.59,13.13,23.69,23.63,32.23,7.2,5.96,14.72,12.57,23.98,14.97.51.14.9.56.98,1.08.09.52-.14,1.04-.57,1.34-9.99,6.97-10.81,24.01-10.84,28.69v1.22c.22,27.02.42,50.67.43,51.68.03,3.87,1.57,6.9,5.16,8.61.9.39,1.88.59,2.87.58.64.12,1.27-.24,1.5-.85s-.02-1.3-.59-1.62c-.71-.57-1.52-1.02-2.39-1.31-1.83-.65-3.31-2.02-4.13-3.78-.58-1.01-.64-2.24-.15-3.29.49-1.06,1.47-1.8,2.62-2,1.83-.52,3.79.02,5.09,1.4,1.96,1.99,3.22,4.58,3.57,7.35,1.21,8.46-.28,16.41-4.87,23.68ZM1033.12,446.7c-.24-12.71-.52-34.05-.71-51.2,0,0,.02-12.63.05-26.96-.12-.1-8.84-7.09-9.36-7.45-3.15-2.56-6.05-5.11-7.11-6.05-9.83,15.48-8.25,41.5-8.25,41.5h.05c-.09,4.33-.07,8.66.22,12.99.5,7.52.86,15.04,1.23,22.56.07.98.49,1.91,1.18,2.62,4.12,4.94,8.96,9.11,13.75,13.34,2.46,2.17,4.56,2.3,7.4.67.82-.38,1.41-1.13,1.56-2.03Z" fill="#fff"/>
    <path d="M1163.81,463.9c-4.73,7.78-13.61,9.78-20.79,7.12-6.36-2.35-10.03-7.41-11.01-14.2-.26-1.85-.4-3.72-.64-5.98-.24.31-.45.63-.64.97-1.58,4.36-4.08,8.22-6.59,12.08-.87,1.29-1.83,2.52-2.9,3.65-5.74,6.28-14.85,5.08-19.6.78-2.96-2.65-5.29-5.94-6.8-9.62-1.39-3.4-2.81-6.79-4.3-10.15-1.94-4.48-4.32-8.76-7.12-12.76-2.66-3.7-6.23-6.66-10.35-8.59-.62-.3-1.23-.63-2.13-1.09.76-.66,1.32-1.16,1.89-1.64,10.85-9.08,16.82-20.64,17.57-34.73.38-7.18-.94-14.08-4.75-20.34-.45-.72-.96-1.4-1.53-2.03-.59-.66-1.33-.85-2.03-.14-.3.26-.47.64-.47,1.04s.17.78.47,1.04c.56.54,1.05,1.15,1.45,1.81.43.8.69,1.68.76,2.58-.02,1.98-1.33,3.71-3.23,4.26-1.48.37-3.24-.48-4.29-2.11-1.09-1.71-1.23-3.86-.36-5.7.65-1.72,1.57-3.32,2.73-4.74,5.69-6.46,12.03-12.21,19.72-16.3,2.18-1.2,4.56-2.01,7.02-2.39,3.75-.6,7.48,1.17,9.38,4.46,1.6,2.55,2.06,5.39,2.46,8.26,1.14,7.66.41,15.47-2.11,22.79-1.79,5.31-4.55,10.25-8.13,14.56-3.44,4.04-6.87,8.11-10.94,11.57-.37.32-.71.67-1.06,1,.15.18.23.35.32.36,3.31.22,5.51,2.28,7.23,4.72,1.96,2.85,3.74,5.82,5.35,8.89,2.27,4.23,4.31,8.59,6.53,12.85,1.41,2.86,3.29,5.47,5.57,7.71.61.59,1.31,1.08,2.06,1.46,2.06.98,4.22.21,5.6-2.05,1.32-2.03,2.04-4.39,2.1-6.81.06-7.34.04-14.68.13-22.02.22-15.97.45-31.94.68-47.9.02-.78.08-1.55.06-2.33-.05-.71.27-1.4.84-1.84,7.75-6.31,15.5-12.62,23.25-18.92.09-.07.26-.06.55-.11,0,3,.04,5.9,0,8.79-.11,6.92-.29,13.84-.41,20.77-.3,18.65-.59,37.3-.86,55.95-.07,2.12-.03,4.24.13,6.35.34,3.74,1.53,7.1,5.24,8.85,1.04.42,2.15.65,3.27.67.54-.05,1.02-.37,1.28-.84.1-.53-.06-1.08-.45-1.46-.77-.62-1.63-1.11-2.54-1.45-1.82-.66-3.31-2.02-4.12-3.78-.57-1.01-.61-2.23-.11-3.27.5-1.04,1.47-1.78,2.61-1.98,2.41-.58,4.34.28,5.82,2.17,1.61,2,2.64,4.41,2.94,6.95.88,8.09-.41,15.74-4.73,22.8Z" fill="#fff"/>
    <path d="M1340.15,291.73c.04.62.1,1.23.11,1.85.06,37.87.11,75.74.18,113.62.04,1.34-.39,2.65-1.21,3.72-10.1,13.65-20.13,27.35-30.25,40.98-4.21,5.68-9.01,10.79-15.21,14.41-3.93,2.3-8.22,3.92-12.68,4.8-6.64,1.32-12.56-.35-17.66-4.74-4.2-3.61-8.26-7.39-12.4-11.08-3.77-3.36-7.56-6.71-12.33-8.62-5.4-2.25-11.21-3.32-17.05-3.15-2.08.02-4.1.59-5.88,1.66-1.41.89-1.52,1.62-.51,2.96.3.4.67.73.97,1.13,1.18,1.5,1.29,3.59.27,5.2-.88,1.7-2.73,2.67-4.64,2.43-4.31-.4-6.72-4.27-5.22-8.33.77-1.84,1.96-3.49,3.47-4.79,7.7-7.27,15.42-14.51,23.17-21.73.31-.3.64-.56.99-.8,3.72-2.38,6.54-5.62,9.15-9.12,8.54-11.47,15.01-23.94,18.15-37.97,1.86-8.32,2.47-16.72.75-25.16-2.26-11.14-7.96-20.09-17.22-26.74-3.41-2.44-7.08-4.5-10.95-6.13-1.31-.53-2.68-.94-4.07-1.23-.84-.16-1.69-.18-2.54-.06-1.04,0-1.93.75-2.14,1.77-.21,1.03.37,2.05,1.36,2.39,1.6.77,3.26,1.41,4.85,2.17,1.31.52,2.56,1.2,3.72,2.01,1.89,1.53,2.81,3.6,2,6.07-.74,2.26-2.26,3.8-4.72,4.05-1.79.11-3.57-.37-5.05-1.38-5.1-3.09-7.81-9.14-6.91-15.43.89-6.26,4.06-11.97,8.91-16.03,4.05-3.6,8.82-6.29,13.99-7.92,3.48-1.04,7.15-1.26,10.74-.64,7.14,1.12,13.04,4.67,18.45,9.19,9.55,8,14.5,18.39,15.59,30.67.93,10.37-.86,20.43-4.45,30.11-5.71,15.38-14.09,29.14-25.78,40.73-5.54,5.5-11.38,10.72-17.08,16.06-.5.47-.96.97-1.73,1.76,1.57-.18,2.68-.33,3.8-.43,9.5-.9,19.02,1.46,27.01,6.67,3.54,2.25,6.92,4.72,10.13,7.41,3.6,3.01,7.53,5.59,11.72,7.71,3.8,1.92,7.82,2.86,11.91,1.16,2.15-.93,4.17-2.13,6-3.59,2.29-1.78,4.33-3.88,6.47-5.86.7-.61,1.09-1.51,1.06-2.44-.07-22.74-.13-45.47-.17-68.21-.03-14.35-.03-28.71-.08-43.06-.06-1.2.35-2.37,1.13-3.27,6.73-7.9,13.4-15.85,20.09-23.77.39-.46.84-.86,1.26-1.3l.51.26Z" fill="#fff"/>
    <path d="M1391.92,461.34c-.09.59-.23,1.18-.43,1.74-3.87,7.79-9,10.45-17.34,10.21-4.04-.12-7.56-1.72-10.8-3.89-1.97-1.31-3.47-3.21-4.28-5.43-.9-2.19-1.43-4.53-1.55-6.9-.16-7.36-.43-14.71-.56-22.07-.1-6.03-.28-22.5-.4-37.09,0,0,.64-26.17-2.79-30.62-.89-1.15-2.18-1.94-3.28-2.9-.65-.57-1.35-.76-2.05-.07-.32.32-.49.75-.47,1.2.02.45.24.87.59,1.15.52.35,1.08.64,1.67.86,1.83.9,2.43,2.1,1.76,3.57-.71,1.61-2.51,2.43-4.18,1.92-1.99-.57-3.4-2.34-3.51-4.41-.15-1.98.34-3.96,1.4-5.64,2.17-3.61,4.83-6.9,7.9-9.78,1.3-1.25,2.67-2.43,4-3.65,2.73-2.48,6-2.98,9.49-2.06,1.48.43,2.9,1.08,4.19,1.93,2.51,1.53,4.93,3.2,7.26,4.98,3.37,2.62,7.2,3.67,11.46,3.67.62,0,1.23.1,1.74.14.47.94-.04,1.34-.63,1.62-2.84,1.38-4.21,3.86-5.57,6.44-2.8,5.3-3.43,10.97-3.51,16.75-.06,4.96.71,68.83.78,74.24.04,1.15.25,2.29.62,3.37.91,2.84,3.98,4.3,6.87,2.01.43-.34.85-.69,1.62-1.32ZM1354.78,332.75c-2.38-2.4-2.7-5.68-.67-8.33,1.61-2.16,3.37-4.19,5.27-6.1,2.81-2.76,5.83-5.33,8.77-7.97.3-.27.66-.47,1.28-.9,2.07,7.51,5.04,14.5,8.25,21.4,3.33,6.95,7.49,13.46,12.4,19.4-2.11.9-4.52.84-6.59-.17-9.24-4.37-17.72-9.91-26.27-15.35-.88-.56-1.69-1.22-2.42-1.96Z" fill="#fff"/>
    <path d="M1443.21,329.05c-.02.84-.19,1.68-.49,2.47-.58,1.52-1.23,3-1.97,4.44-1.34,2.62-2.94,3.15-5.53,1.75-2.87-1.55-5.74-3.09-8.94-3.87-.67-.16-1.36-.3-2.31-.5,0,.98,0,1.73,0,2.49.05,7.12.07,14.24.14,21.37.24,26.22.47,52.44.71,78.65.04,4.1,2.13,7.35,5.68,8.58.86.3,1.79.4,2.7.31,1.25-.14,1.67-1.26.76-2.13-.79-.7-1.7-1.24-2.69-1.59-1.81-.67-3.29-2.03-4.12-3.78-1.14-2.27,0-4.63,2.51-5.23,2.41-.57,4.34.28,5.81,2.17,1.61,1.99,2.63,4.4,2.94,6.94.84,7.76-.35,15.13-4.28,22.04-4.86,8.55-13.96,10.23-21.91,7.78-2.56-.79-4.71-2.27-6.82-3.82-1.9-1.39-3.33-3.32-4.11-5.55-.98-2.57-1.52-5.29-1.61-8.04-.09-8.18-.34-16.35-.46-24.52-.07-5.14,0-10.28-.06-15.42-.13-12.06-.3-24.11-.43-36.16-.09-8.32-.22-16.64-.21-24.95.01-5.78.24-11.56.37-17.34.02-.77,0-1.53,0-2.63-1.22.46-2.2.8-3.16,1.19-1.7.7-3.37,1.51-5.1,2.12-2.08.73-3.4.31-4.31-1.13-1.05-1.51-.9-3.55.38-4.89,1.1-1.23,2.61-2.01,4.25-2.2,1.47-.21,2.96-.29,4.45-.41,1.12-.09,2.25-.12,3.4-.19.15-.28.25-.57.31-.88.03-3.53.07-7.05.05-10.58-.03-2.6-.11-5.21-.24-7.8-.06-.98-.22-1.96-.51-2.9-.6-2.06-1.98-2.64-3.93-1.64-.81.42-1.49,1.09-2.29,1.53-.44.24-1.16.47-1.5.27-.64-.36-.51-1.09-.14-1.68.44-.8.94-1.58,1.49-2.31,5.44-6.5,12.13-10.31,20.95-9.42,2.43.18,4.7,1.33,6.26,3.2,2.84,3.35,4.53,7.02,4.45,11.54-.11,6.13.11,12.27.19,18.4,0,.62.07,1.24.11,1.95,1.72,0,3.33.07,4.93-.02,3.33-.18,6.66-.45,9.99-.67.49-.05.99-.06,1.49-.03,1.84.19,2.82,1.24,2.78,3.1Z" fill="#fff"/>
    <path d="M1519.91,365.12c-.49,1.54-1.15,3.03-1.98,4.43-3.15,5.05-6.87,9.72-11.08,13.93-1.92,2.02-4.39,3.43-7.09,4.08-1.65.51-3.44.29-4.92-.61-2.49-1.62-5-3.23-7.34-5.05-2.45-1.91-4.7-4.09-7.06-6.12-.8-.7-1.65-1.33-2.54-1.91-1.05-.63-2.32-.78-3.5-.44-1.12.26-2.83,2.35-2.85,4.3-.07,7.98-.05,19.59.01,27.57.1,12.29.24,24.58.41,36.88.05,3.46.41,6.92.38,10.37-.05,4.65,5.37,8.09,9.35,4.71.22-.11.45-.2.69-.25-.21.92-.49,1.81-.83,2.69-3.14,6.6-8.15,10.74-15.6,11.6-1.48.17-2.97.34-4.45.37-5.21.11-8.91-2.57-11.58-6.7-2.31-3.57-3.18-7.71-3.44-11.89-.23-3.72-.09-7.47-.13-11.21-.06-7.42-.12-14.84-.17-22.25-.09-13.35-.16-36.87-.24-50.22l-7.29-7.22,21.08-15.36,10,21.66c.96-7.03,4.79-14.15,5.89-15.14,2.97-3.01,4.96-4.77,8.18-6.03,3.1-1.21,6.1-1.17,8.96.65.97.58,1.9,1.24,2.75,1.99,3.89,3.61,7.75,7.27,11.56,10.96,1.49,1.44,2.96,2.91,4.96,3.57,1.08.29,2.2.44,3.32.44.84.04,1.55-.31,1.61-1.31.14-.89-.41-1.73-1.28-1.96-.75-.19-1.52-.33-2.3-.43-.42-.07-.85-.07-1.27-.14-1.76-.27-3.33-.79-3.84-2.79-.59-2.32.08-4.43,1.82-5.69,3.14-2.26,7.29-1.15,9.07,2.62,1.54,3.07,1.81,6.63.75,9.9Z" fill="#fff"/>
    <path d="M1604,463.32c-3.72,5.97-9.3,8.24-16.22,8-2.15-.09-4.28-.44-6.34-1.02-6.3-1.76-9.7-6.71-9.68-13.25.03-8.34.85-15.75-.29-15.75-7.28,0-1.07,9.04-5.03,19.66-4.22,8.89-12.31,11.49-21.83,10.95-1.28-.07-10.39.04-16.37-5.04-5.53-4.58-8.77-11.36-8.87-18.53-.19-6.24.2-12.5.58-18.74.22-3.19.71-6.35,1.45-9.47,1.29-5.62,4.13-10.3,9.3-13.4,5.05-3,10.38-5.49,15.92-7.43,1.39-.52,2.74-1.13,4.04-1.84.65-.47,1.26-1,1.81-1.59-1.66-.59-2.88-1.1-4.14-1.47-6.16-1.86-12.19-4.17-18.02-6.89-1.85-.86-3.59-1.95-5.18-3.24-2.11-1.68-2.85-3.99-1.87-6.56.62-1.77,1.45-3.47,2.47-5.04,5.37-7.72,11.45-14.92,18.14-21.52,2.44-2.4,5.64-3.88,9.05-4.16,4.42-.5,8.53.25,12.72,1.65,9.95,3.32,18.17,9.33,26.35,15.47,2.14,1.61,4.31,3.18,6.43,4.82,2.09,1.77,4.85,2.52,7.54,2.07.37-.11.78-.05,1.1.16.15.16.19.41,0,.81-2.34,5.07-6.2,9.2-9.05,13.98-4.97,8.35-2.89,37.48-3.24,44.85-.14,2.86-.16,5.69.97,8.42.96,2.63,3.18,4.6,5.91,5.23,1.5.37,2.75.04,3.05-.74s-.45-1.77-1.89-2.45c-.57-.27-1.19-.45-1.78-.69-1.71-.72-3.05-2.1-3.72-3.83-.95-2.21.57-4.58,3.07-4.89,2.08-.35,4.17.52,5.41,2.23,1.5,1.86,2.48,4.08,2.85,6.44,1.15,8.12-.26,15.76-4.66,22.81ZM1556.67,395.58c.43-.14.85-.31,1.27-.5,3.46-1.9,6.68-4.2,9.61-6.84.56-.53,1-1.17,1.3-1.87.78-1.63.53-2.9-.87-4.12-1.48-1.29-3.03-2.5-4.58-3.71-3.42-2.67-7.49-4.21-11.39-6-6-2.76-9.63-1.27-13.24,3.55-1.73,2.31-1.6,5.49.58,7.36,1.53,1.24,3.18,2.32,4.92,3.22,2.23,1.22,4.57,2.22,6.82,3.4,2.39,1.25,4.63,2.72,5.58,5.5ZM1571.43,405.52c.39-3.52-3.13-6.69-6.7-5.39-1.53.55-3.09,1.04-4.6,1.62-7.76,2.99-13.13,8.15-14.95,16.32-.54,2.43-.71,4.94-1.04,7.41l.13.02c0,1.46-.09,2.93.02,4.37.15,3.07,1.2,6.04,3.01,8.53,3.75,5.13,11.51,6.47,17.27,2.56,3.98-2.7,6.01-6.33,6.01-11.08,0-2.64.09-5.28.17-7.92.18-5.49.07-11,.68-16.44h0Z" fill="#fff"/>
    <path d="M1658.25,461.34c-.09.59-.23,1.18-.43,1.74-3.87,7.79-9,10.45-17.34,10.21-4.04-.12-7.56-1.72-10.8-3.89-1.97-1.31-3.47-3.21-4.28-5.43-.9-2.19-1.43-4.53-1.55-6.9-.16-7.36-.43-14.71-.56-22.07-.1-6.03-.28-22.5-.4-37.09,0,0,.64-26.17-2.79-30.62-.89-1.15-2.18-1.94-3.28-2.9-.65-.57-1.35-.76-2.05-.07-.32.32-.49.75-.47,1.2.02.45.24.87.59,1.15.52.35,1.08.64,1.67.86,1.83.9,2.43,2.1,1.76,3.57-.71,1.61-2.51,2.43-4.19,1.92-1.99-.57-3.4-2.34-3.51-4.41-.15-1.98.34-3.96,1.4-5.64,2.17-3.61,4.83-6.9,7.9-9.78,1.3-1.25,2.67-2.43,4-3.65,2.73-2.48,6-2.98,9.49-2.06,1.48.43,2.9,1.08,4.19,1.93,2.51,1.53,4.93,3.2,7.26,4.98,3.37,2.62,7.2,3.67,11.46,3.67.62,0,1.23.1,1.74.14.47.94-.04,1.34-.63,1.62-2.84,1.38-4.21,3.86-5.57,6.44-2.8,5.3-3.43,10.97-3.51,16.75-.06,4.96.71,68.83.78,74.24.04,1.15.25,2.29.62,3.37.91,2.84,3.98,4.3,6.87,2.01.43-.34.85-.69,1.62-1.32ZM1621.11,332.75c-2.38-2.4-2.7-5.68-.67-8.33,1.61-2.16,3.37-4.19,5.27-6.1,2.81-2.76,5.83-5.33,8.77-7.97.3-.27.66-.47,1.28-.9,2.07,7.51,5.04,14.5,8.25,21.4,3.33,6.95,7.49,13.46,12.4,19.4-2.11.9-4.52.84-6.59-.17-9.24-4.37-17.72-9.91-26.27-15.35-.88-.56-1.69-1.22-2.42-1.96Z" fill="#fff"/>
    <path d="M1700.55,461.34c-.09.59-.23,1.18-.43,1.75-3.87,7.79-9,10.45-17.35,10.21-4.04-.11-7.56-1.72-10.8-3.89-1.97-1.31-3.47-3.21-4.28-5.43-.9-2.2-1.43-4.53-1.55-6.9-.17-7.36-.44-14.71-.56-22.07-.17-10.26-.56-50.79-.51-60.79.02-2.77.37-45.06.47-55.81.03-3.2.01-6.39-.08-9.59-.03-1.42-.21-2.83-.53-4.21-.58-2.43-2.11-3.03-4.32-1.78-.74.42-1.35,1.06-2.1,1.44l-.05.02c-.38.16-.82.11-1.14-.14-.33-.25-.49-.66-.43-1.07.01-.06.03-.11.05-.17.37-.85.86-1.64,1.45-2.35,5.4-6.54,12.03-10.41,20.82-9.62,2.63.23,5.05,1.51,6.73,3.55,2.77,3.24,4.28,7.37,4.25,11.64.05,14.85,1.12,138.42,1.26,151.16.04,1.15.24,2.29.62,3.37.91,2.84,3.98,4.3,6.86,2.01.43-.34.85-.69,1.63-1.33Z" fill="#fff"/>
  </g>
  <path d="M623.81,456.64c.1,2.39.66,4.76,1.64,7,.72,1.77,1.9,3.2,3.44,4.21,3.79,2.52,7.59,3.67,11.58,3.54,4.94-.17,8.63-1.99,11.39-5.68-.71.04-1.42-.05-2.1-.27-.91-.3-1.7-.83-2.36-1.54l-23.69-12.45c.03,1.73.08,3.46.1,5.2Z" fill="#614bf2"/>
  <path d="M1048.73,472.22c2.55.46,5.07.36,7.39-.23l-20.06-10.77c1.68,5.66,6.37,9.85,12.67,11Z" fill="#614bf2"/>
  <path d="M623.32,430.91c0,.49,0,.97,0,1.46.06,4.04.15,8.08.24,12.12.02.78.03,1.56.05,2.34l12.24,6.43-12.54-22.36Z" fill="#1a14d9"/>
  <path d="M1285.09,468.84c2.66-.86,5.23-1.97,7.66-3.39,3.9-2.28,7.48-5.32,11.03-9.4l-23.71,3.88,5.02,8.92Z" fill="#1a14d9"/>
  <path d="M567.01,467.08c1.92-1.4,3.59-3.21,4.95-5.56-1.25.09-2.55-.13-3.79-.71-2.87-1.35-4.71-4.25-4.67-7.39.02-1.89-.08-3.77-.19-5.66-.08-1.55-.17-3.11-.19-4.66-.07-5.04-.11-10.07-.17-15.11l-12.36,26.09,16.41,13Z" fill="#614bf2"/>
  <path d="M541.67,453.85c.29,4.59,1.28,8.06,3.12,10.92,2.57,3.97,5.84,5.9,9.84,5.77,1.42-.03,2.85-.2,4.26-.36,1.53-.18,2.94-.53,4.26-1.01l-21.54-17.07c.02.58.02,1.16.06,1.74Z" fill="#1a14d9"/>
  <path d="M1359.53,457.91c.11,2.09.58,4.19,1.4,6.17.7,1.91,1.91,3.44,3.54,4.52,3.48,2.33,6.58,3.46,9.74,3.55,1.71.05,3.23-.03,4.62-.26l-19.38-17.17c.03,1.06.06,2.12.08,3.18Z" fill="#614bf2"/>
  <path d="M995.43,459.1c2.81,2.68,5.63,5.36,8.49,7.98,1.54,1.37,3.44,2.37,5.46,2.87,2.06.54,3.6.25,5.03-.93,1.23-1.02,2.42-2.07,3.62-3.13.42-.37.84-.73,1.26-1.1l-25.25-7.03,1.4,1.34Z" fill="#1a14d9"/>
  <path d="M490.24,444.53c-.47.61-.35,2.78-.25,4.71.04.65.07,1.35.1,2.08.01-.39.03-.78.04-1.15.07-2.02.15-4.23.12-5.64Z" fill="#ff8500"/>
  <path d="M1060.82,469.93c1.76-1.14,3.28-2.6,4.42-4.41,2.76-4.36,4.35-9.1,4.8-14.15l-24.75,10.23,15.52,8.33Z" fill="#1a14d9"/>
  <path d="M675.37,437.09c.05,2.47.09,4.93.15,7.4.09,4.05.18,8.1.24,12.15.1,2.39.66,4.76,1.64,7,.7,1.72,1.85,3.11,3.34,4.12l15.1-19.94-20.46-10.72Z" fill="#614bf2"/>
  <path d="M714.42,496.83c.49-.04.98-.11,1.45-.21,5.24-1.23,10.21-3.79,14.33-7.36,3.23-2.78,5.96-6.04,8.11-9.71.84-1.44,1.7-2.86,2.55-4.28l1.24-2.07c.38-.64,1.06-1.04,1.83-.98,4.66.23,7.7.15,9.51-.27-2.98-4.07-4.56-8.94-4.67-14.53l-.06-4.16-25.48,29.98c-2,5.37-4.89,9.88-8.82,13.59Z" fill="#614bf2"/>
  <path d="M1143.72,470.01c5.23,1.94,12.47,1.16,17.09-4.56l-25.86-4.29c1.52,4.24,4.49,7.28,8.77,8.86Z" fill="#614bf2"/>
  <path d="M1274.98,459.12l-.76-1.36-23.47-4.53c.55.48,1.11.97,1.64,1.44,1.46,1.3,2.92,2.62,4.37,3.93,2.65,2.39,5.29,4.79,8,7.12,4.67,4.02,10.04,5.45,15.95,4.29.13-.02.25-.06.37-.09l-5.79-10.28c-.12-.16-.22-.33-.29-.52Z" fill="#614bf2"/>
  <path d="M1119.76,467.07c.99-1.06,1.9-2.2,2.71-3.41,1.39-2.14,2.78-4.34,4.02-6.62l-22.77,11.21c3.94,2.96,11.17,4.14,16.03-1.18Z" fill="#1a14d9"/>
  <path d="M851.71,457.75c-.45-.02-.72-.04-.97-.09-.49-.08-1.03-.22-1.55-.42-1.62-.68-2.28-1.62-2.5-2.48-.45,1.5-.59,3.09-.41,4.65.24,2.34,2.09,4.16,4.41,4.37,2.19.27,4.21-1.23,4.42-2.63.11-.74-.04-1.38-.45-1.93-.58-.77-1.63-1.29-2.95-1.46Z" fill="#1a14d9"/>
  <path d="M692.41,471.38c4.94-.17,8.64-1.99,11.39-5.68-.71.03-1.42-.04-2.1-.27-1.9-.63-3.3-2.2-3.97-4.42-.5-1.69-.77-3.43-.79-5.19,0-.96-.02-1.84-.03-2.74l-12.62,16.65c2.64,1.17,5.32,1.74,8.1,1.66Z" fill="#1a14d9"/>
  <path d="M867.75,431.26c-7.57,5.16-13.93,11.64-18.91,19.31.44-.19.93-.3,1.44-.3,1.67-.12,3.79-.12,5.75.92,1.28.63,2.53,1.39,3.74,2.19l19.73,2.7-11.75-24.83Z" fill="#614bf2"/>
  <path d="M866.39,458.58c1.05.88,2.09,1.76,3.15,2.63l.86.7c2.09,1.7,4.17,3.41,6.34,5,2.59,1.96,5.48,3.32,8.62,4.08,4.62,1.07,8.54.19,11.95-2.7.42-.35,2.79-2.68,5.11-4.98l-36.34-4.98c.1.08.21.17.31.25Z" fill="#1a14d9"/>
  <path d="M728.21,435.4c-.05,2.04-.13,4.09-.29,6.13-.18,2.16-.16,4.31-.14,6.59.01,1.68.03,3.36-.04,5.03-.25,6.29-.75,13.61-2.14,21.08l22.03-25.92-19.42-12.9Z" fill="#1a14d9"/>
  <path d="M1668.16,457.91c.11,2.08.58,4.18,1.4,6.18.7,1.91,1.91,3.44,3.53,4.52,3.48,2.33,6.58,3.46,9.74,3.55,6.36.19,10.23-1.35,13.3-5.46-.6.02-1.22-.07-1.81-.25-1.28-.39-2.36-1.24-3.16-2.36l-23.23-15.08c.09,2.97.17,5.93.24,8.9Z" fill="#1a14d9"/>
  <path d="M449.73,466.19c3.34,2.84,8.29,4.37,14.73,4.56l.46.02c9.99.54,16.5-2.65,19.9-9.8,1.53-4.13,1.31-8.22,1.14-11.51-.04-.68-.06-1.33-.08-1.97l-40.94,13.19c1.27,2.06,2.88,3.93,4.8,5.52Z" fill="#614bf2"/>
  <path d="M1401.48,442.61c.08,3.93.17,7.85.21,11.78.08,2.49.58,4.97,1.48,7.34.66,1.9,1.83,3.48,3.41,4.63.24.18.49.35.74.53l20.55-11.44-26.39-12.84Z" fill="#1a14d9"/>
  <path d="M167.58,464.07c4.82-3.67,9.38-7.69,13.48-12.13,2.21-2.39,4.03-4.73,5.69-7.06l-30.43,16.22,11.26,2.97Z" fill="#614bf2"/>
  <path d="M70.94,440.86c-.76-.55-1.49-1.04-2.29-1.64-3.43-2.56-7.18-5.33-11.12-7.93l-.69,16.74,14.1-7.17Z" fill="#1a14d9"/>
  <path d="M81.37,470.47c7.55-2.99,14.96-10.31,22.03-21.74,5.67-9.17,3.73-10.64,2.45-11.61-.44-.33-1.21-.92-1.66-1.79-3.28,3.27-3.99,5.21-4,6.29-.01,1,.58,1.67,1.55,2.66.83.85,1.78,1.81,1.72,3.24-.04.88-.46,1.67-1.25,2.35-4.36,3.72-9.43,2.68-16.21-.21-2.82-1.2-5.62-2.66-8.55-4.44l3.59,25.36c.11-.04.22-.07.33-.11Z" fill="#614bf2"/>
  <path d="M17.53,436.31c-.18.16-.35.32-.53.47-3.09,2.74-6.17,5.47-9.22,8.24-1.42,1.28-2.82,2.73-3.45,4.59-.5,1.33-.31,2.74.49,3.83.8,1.1,2.11,1.72,3.43,1.64,1.11-.01,2.03-.63,2.43-1.58.51-1,.41-2.04-.19-2.79-.17-.23-.32-.39-.47-.56-.3-.34-.6-.68-.85-1.06-.71-1.08-.94-2.11-.68-3.08.17-.63.63-1.52,1.88-2.16.57-.29,1.17-.59,1.78-.87,8.18-2.01,15.11,2.89,21.22,7.2l1.01.71c2.35,1.65,4.66,3.34,6.99,5.01l8.7-4.42-32.54-15.16Z" fill="#614bf2"/>
  <path d="M45.07,458.54c1.41,1.02,2.83,2.01,4.23,3.03,4.03,3.04,8.41,5.57,13.03,7.54,5.64,2.29,10.45,3.11,14.77,2.48l-3.88-27.37-28.16,14.31Z" fill="#1a14d9"/>
  <path d="M125.98,460.82c9.75,10.52,25.6,13.02,37.31,6.3l-40.84-10.79c1.06,1.57,2.22,3.08,3.53,4.49Z" fill="#1a14d9"/>
  <path d="M516.72,468.54c2.33-1.17,4.25-2.96,5.77-5.41,2.8-4.49,4.33-9.37,4.64-14.57l-20.75,9.39,10.35,10.58Z" fill="#614bf2"/>
  <path d="M493.98,457.93c-.02,5.81,2.9,9.82,8.2,11.3,1.93.54,3.91.86,5.89.95,1.55.06,2.99-.04,4.34-.27l-18.28-18.69c-.07,2.07-.15,4.33-.15,6.71Z" fill="#1a14d9"/>
  <path d="M1412.81,469.88c6.45,1.98,14.97,1.24,19.56-6.85,1.29-2.26,2.18-4.63,2.88-7.06l-23.94,13.33c.49.22.98.43,1.5.58Z" fill="#614bf2"/>
  <path d="M55.75,425.65c.26.01.5.08.72.18-1.26-.77-2.52-1.54-3.82-2.25-.98-.53-2.21-.17-2.74.81-.53.98-.17,2.21.81,2.74.98.53,1.92,1.12,2.88,1.69l.05-1.24c.05-1.12,1.07-1.97,2.1-1.94Z" fill="#3d3429"/>
  <path d="M108.29,433.9c-.08-.06-.18-.13-.26-.2.04-.07.09-.14.16-.23.25-.33.45-.69.59-1.07.3-.76.1-1.63-.49-2.19l-.87-.83c-.77-.73-1.98-.74-2.77-.02l-.91.82c-.7.63-1.38,1.24-1.96,1.84-3.77,3.64-5.61,6.76-5.64,9.55-.03,2.76,1.69,4.51,2.72,5.55.04.04.08.08.13.13-2.39,1.63-5.43,1.25-11.41-1.3-5.16-2.2-10.25-5.27-16.51-9.95-4.36-3.26-9.2-6.85-14.42-10.05.63.36,1.06,1.04,1.02,1.81l-.15,3.54c3.94,2.6,7.69,5.37,11.12,7.93.79.59,1.52,1.09,2.29,1.64l2.97-1.51c.58-.3,1.27-.29,1.85,0,.58.3.97.86,1.07,1.51l.62,4.35c2.93,1.78,5.73,3.23,8.55,4.44,6.77,2.89,11.85,3.93,16.21.21.8-.68,1.22-1.47,1.25-2.35.06-1.43-.89-2.39-1.72-3.24-.97-.99-1.56-1.66-1.55-2.66.01-1.07.73-3.01,4-6.29.45.87,1.22,1.46,1.66,1.79,1.28.97,3.22,2.44-2.45,11.61-7.06,11.43-14.48,18.74-22.03,21.74-.11.04-.22.07-.33.11l.33,2.36c.15,1.05-.55,2.01-1.57,2.23,1.01-.24,2.03-.54,3.06-.94,8.37-3.32,16.44-11.18,23.97-23.37,6.31-10.2,5.14-14.16,1.46-16.96Z" fill="#3d3429"/>
  <path d="M77.38,473.5l-.27-1.91c-4.33.62-9.13-.2-14.77-2.48-4.62-1.96-9-4.49-13.03-7.54-1.4-1.02-2.83-2.02-4.23-3.03l-2.92,1.49c-1,.5-2.21.11-2.72-.89-.51-.99-.11-2.21.89-2.72l1.05-.54c-2.33-1.67-4.65-3.36-6.99-5.01l-1.01-.71c-6.11-4.31-13.03-9.21-21.22-7.2-.61.27-1.2.57-1.78.87-1.25.64-1.71,1.53-1.88,2.16-.26.97-.03,2.01.68,3.08.25.38.54.72.85,1.06.15.17.3.33.47.56.59.76.69,1.8.19,2.79-.4.95-1.32,1.57-2.43,1.58-1.32.08-2.64-.54-3.43-1.64-.8-1.09-.99-2.5-.49-3.83.64-1.86,2.04-3.3,3.45-4.59,3.05-2.77,6.14-5.5,9.22-8.24.18-.16.35-.32.53-.47l-1.2-.56c-1.01-.47-1.45-1.67-.98-2.68.47-1.01,1.67-1.45,2.68-.98l2.78,1.3c.79-.7,1.59-1.41,2.38-2.11.83-.74.9-2.02.16-2.85-.74-.83-2.02-.9-2.85-.16l-6.18,5.5c-3.1,2.74-6.19,5.49-9.26,8.26-1.73,1.57-3.63,3.54-4.54,6.22-.96,2.55-.58,5.38,1.03,7.58s4.22,3.44,6.82,3.3c2.64-.03,5.01-1.62,5.97-3.91,1.16-2.25.9-5-.63-6.95-.2-.28-.43-.53-.66-.79-.08-.09-.17-.19-.27-.31.3-.16.56-.29.67-.37,6.07-1.44,11.92,2.69,17.58,6.7l1.02.72c4.99,3.5,9.94,7.06,14.84,10.63,4.27,3.22,8.93,5.92,13.89,8.02,3.53,1.43,8.23,3.01,13.41,3.01,1.74,0,3.53-.21,5.35-.62-.06,0-.12.01-.18.01-.99,0-1.85-.73-2-1.74Z" fill="#3d3429"/>
  <path d="M167.6,468.26l-4.31-1.14c-11.72,6.72-27.57,4.22-37.31-6.3-1.3-1.41-2.47-2.92-3.53-4.49l-4.73-1.25c-.51-.13-.91-.46-1.18-.88,1.7,3.38,3.85,6.54,6.47,9.36,6.89,7.44,16.49,11.32,25.98,11.32,6.79,0,13.52-1.99,19.15-6.09.35-.26.67-.56,1.02-.82-.32.2-.67.35-1.05.35-.17,0-.35-.02-.52-.07Z" fill="#3d3429"/>
  <path d="M116.29,452.61c.28-1.08,1.4-1.71,2.47-1.44l.94.25c-1.41-3.02-2.45-6.23-2.99-9.57-.18-1.1-1.23-1.83-2.32-1.67-1.1.18-1.85,1.22-1.67,2.32.66,4.06,1.94,7.94,3.75,11.56-.23-.43-.32-.95-.18-1.46Z" fill="#3d3429"/>
  <path d="M514.82,472.37l-2.4-2.46c-1.35.23-2.79.32-4.34.27-1.99-.09-3.97-.41-5.89-.95-5.3-1.48-8.22-5.49-8.2-11.3,0-2.38.08-4.64.15-6.71l-3.32-3.39c-.78-.8-.77-2.08.03-2.86.8-.78,2.08-.76,2.86.03l.58.59c0-2.76-.21-3.95-.97-4.73-.38-.39-1.1-.71-1.65-.71-1.91,0-3.32.51-4.32,1.56-.37.39-.62.85-.84,1.33l.79-.25c1.07-.33,2.2.24,2.54,1.3.34,1.06-.24,2.2-1.3,2.54l-2.66.86c.02.64.04,1.29.08,1.97.17,3.29.39,7.38-1.14,11.51-3.4,7.16-9.9,10.35-19.9,9.8l-.46-.02c-6.45-.2-11.39-1.73-14.73-4.56-1.91-1.59-3.53-3.45-4.8-5.52l-2.31.75c-.21.07-.41.1-.62.1-.85,0-1.65-.54-1.92-1.4-.34-1.06.24-2.2,1.3-2.54l1.76-.57c-.96-2.47-1.51-5.1-1.54-7.82-.02-1.11-.92-1.99-2.02-1.99h-.03c-1.12.02-2.01.93-1.99,2.05.11,7.78,3.61,15.09,9.58,20.04,4.03,3.43,9.82,5.28,17.56,5.52.8.05,1.58.07,2.35.07,10.38,0,17.59-4.1,21.49-12.33.8-2.16,1.22-4.26,1.42-6.22,0,.53-.01,1.06-.01,1.6-.02,7.57,4.15,13.25,11.15,15.2,2.22.63,4.51.99,6.83,1.09,3.34.14,6.33-.34,8.97-1.36-.2.07-.41.12-.63.12-.52,0-1.05-.2-1.44-.61ZM490.08,451.32c-.03-.73-.06-1.43-.1-2.08-.1-1.93-.22-4.11.25-4.71.04,1.41-.04,3.62-.12,5.64-.01.37-.03.76-.04,1.15Z" fill="#3d3429"/>
  <path d="M530.05,447.24l-2.92,1.32c-.31,5.2-1.84,10.08-4.64,14.57-1.52,2.44-3.43,4.23-5.77,5.41l.98,1.01c.78.8.77,2.08-.03,2.86-.16.16-.35.26-.55.36,3.62-1.45,6.58-3.93,8.79-7.49,3.75-6.02,5.5-12.65,5.29-19.77-.04.73-.45,1.42-1.16,1.74Z" fill="#3d3429"/>
  <path d="M531.05,444.57c.1.21.13.43.15.65-.05-1.37-.15-2.75-.35-4.15-.43-2.7-1.56-5.26-3.28-7.39-.7-.87-1.97-1.01-2.84-.31-.87.7-1.01,1.97-.31,2.84,1.27,1.58,2.11,3.48,2.42,5.45.12.83.19,1.65.25,2.47l1.27-.58c1.02-.46,2.21,0,2.67,1.01Z" fill="#3d3429"/>
  <path d="M565.7,471.19l-2.55-2.02c-1.32.48-2.73.83-4.26,1.01-1.41.16-2.84.33-4.26.36-4,.12-7.27-1.8-9.84-5.77-1.85-2.85-2.84-6.32-3.12-10.92-.04-.58-.04-1.16-.06-1.74l-3.35-2.65c-.87-.69-1.02-1.96-.33-2.84.69-.87,1.96-1.02,2.84-.33l.77.61c0-.22,0-.44,0-.65,0-1.17.01-2.33,0-3.5-.06-7.42-.12-14.83-.17-22.25,0-1.11-.91-2.01-2.02-2.01h-.01c-1.11,0-2.01.92-2.01,2.03.05,7.42.1,14.84.17,22.26,0,1.15,0,2.3,0,3.45-.01,2.63-.03,5.26.13,7.88.33,5.24,1.56,9.45,3.77,12.86,3.28,5.06,7.64,7.62,12.96,7.62.12,0,.24,0,.36,0,1.55-.03,3.1-.21,4.64-.39,3.14-.36,5.93-1.3,8.41-2.75-.26.11-.53.18-.81.18-.44,0-.88-.14-1.25-.44Z" fill="#3d3429"/>
  <path d="M575.1,455.93c-.39.09-.78.23-1.13.41-.14.07-.28.16-.4.26-1.5,1.27-2.95.89-3.67.54-1.42-.66-2.36-2.15-2.35-3.69.02-1.97-.08-3.95-.19-5.92-.08-1.5-.16-3-.18-4.5-.17-12.29-.31-24.58-.41-36.87,0-1.11-.91-2-2.02-2h-.02c-1.12,0-2.01.92-2,2.04.03,4.19.1,8.37.14,12.56l.08-.18c.48-1.01,1.68-1.43,2.69-.96,1.01.48,1.44,1.68.96,2.69l-3.63,7.67c.06,5.04.1,10.07.17,15.11.02,1.55.11,3.11.19,4.66.1,1.89.21,3.78.19,5.66-.03,3.15,1.8,6.05,4.67,7.39,1.23.58,2.54.8,3.79.71-1.36,2.35-3.03,4.15-4.95,5.56l1.2.95c.87.69,1.02,1.96.33,2.84-.16.2-.36.33-.57.45,3.6-2.17,6.5-5.48,8.64-10,.37-.96.68-1.95.92-2.96.16-.68-.05-1.4-.54-1.89s-1.21-.7-1.89-.53Z" fill="#3d3429"/>
  <path d="M622.19,446.09l1.43.75c-.02-.78-.03-1.56-.05-2.34-.09-4.04-.18-8.08-.24-12.12,0-.49,0-.97,0-1.46l-3.83-6.84c-.13-.24-.21-.49-.24-.74,0,.29,0,.58,0,.87,0,2.74,0,5.49.04,8.23.06,4.05.15,8.1.24,12.15.02.74.03,1.48.04,2.22.56-.87,1.68-1.2,2.62-.71Z" fill="#3d3429"/>
  <path d="M620.26,421.32c.98-.55,2.2-.2,2.75.77l.28.49c0-1.81,0-3.61-.02-5.42-.01-1.12-.84-1.98-2.04-2-1.12.01-2.01.93-2,2.04.02,2,.02,4.01.02,6.01-.05-.76.31-1.51,1.01-1.91Z" fill="#3d3429"/>
  <path d="M650.21,460.98c-.22-.29-.41-.67-.55-1.12-.39-1.33-.6-2.7-.62-4.09-.02-1.12-.79-2.14-2.05-1.99-1.11.01-2.01.93-1.99,2.05,0,.79.09,1.58.19,2.36l4.44,2.34c.23.12.41.28.57.46Z" fill="#3d3429"/>
  <path d="M757.67,470.7c-3.11-3.59-4.74-8.09-4.85-13.35l-.46-32.86c-.02-1.12-1.08-1.96-2.05-1.99-1.12.02-2.01.93-1.99,2.05l.27,19.54,3.17,2.11c.48.32.8.83.88,1.4s-.09,1.15-.46,1.59l-3.46,4.07.06,4.16c.11,5.59,1.69,10.46,4.67,14.53-1.81.42-4.85.5-9.51.27-.77-.06-1.45.34-1.83.98l-1.24,2.07c-.85,1.41-1.71,2.84-2.55,4.28-2.15,3.66-4.87,6.93-8.11,9.71-4.11,3.58-9.09,6.13-14.33,7.36-.48.09-.96.17-1.45.21,3.93-3.72,6.82-8.22,8.82-13.59l-.17.2c-.4.47-.97.71-1.54.71-.46,0-.93-.16-1.31-.48-.85-.72-.95-2-.23-2.85l5.61-6.6c1.39-7.47,1.89-14.8,2.14-21.08.07-1.67.06-3.35.04-5.03-.02-2.28-.03-4.43.14-6.59.16-2.04.24-4.08.29-6.13l-3.08-2.04c-.93-.62-1.18-1.87-.56-2.8.62-.93,1.87-1.19,2.8-.56l.89.59c0-2.45-.05-4.89-.09-7.28-.04-2.07-.08-4.13-.1-6.2,0-1.11-.91-2-2.02-2h-.02c-1.12,0-2.01.92-2,2.04.02,2.08.06,4.17.1,6.25.12,5.86.23,11.91-.24,17.82-.19,2.33-.17,4.68-.16,6.94.01,1.61.03,3.23-.04,4.84-.27,6.83-.78,14.9-2.51,22.95-1.67,7.79-4.96,13.82-10,18.39-.5.43-.96.89-1.44,1.43-1.27,1.55-.89,2.88-.66,3.39.22.49.94,1.65,2.81,1.73.44.03.89.05,1.33.05,1.16,0,2.32-.12,3.51-.35,5.94-1.4,11.51-4.26,16.11-8.25,3.56-3.06,6.58-6.67,8.95-10.72.83-1.42,1.69-2.83,2.53-4.24l.63-1.05c7.5.29,10.81-.26,12.87-2.09.6-.54.83-1.38.57-2.15-.14-.41-.33-.8-.73-1.38Z" fill="#3d3429"/>
  <path d="M674.14,431.88l1.14.6s0-.08,0-.12c-.04-2.72-.04-5.44-.04-8.17,0-2.34,0-4.69-.02-7.03,0-1.12-.96-1.98-2.04-2-1.12.01-2.01.93-2,2.04.03,2.33.02,4.66.02,6.99,0,2.74,0,5.49.04,8.23,0,.28.01.56.02.84.04-.18.07-.36.15-.53.52-.99,1.73-1.37,2.73-.85Z" fill="#3d3429"/>
  <path d="M710.18,461.55c.14-.83-.25-1.67-.98-2.09-.73-.43-1.65-.35-2.3.19l-.68.57c-.32.27-.57.48-.82.67-.88.66-1.77.92-2.43.7-.6-.2-1.08-.81-1.36-1.74-.39-1.33-.6-2.71-.62-4.09-.14-13.12-.26-20.88-.38-28.35-.13-8.27-.26-16.21-.39-30.73,0-1.11-.91-2-2.02-2h-.02c-1.12,0-2.01.92-2,2.04.13,14.54.26,22.48.39,30.76.08,4.84.16,9.82.24,16.29l3.01,1.58c.53.28.91.77,1.03,1.35.13.58,0,1.19-.36,1.66l-3.57,4.72c0,.91.02,1.78.03,2.74.02,1.76.29,3.51.79,5.19.66,2.23,2.07,3.8,3.97,4.42.67.22,1.38.3,2.1.27-2.75,3.69-6.45,5.52-11.39,5.68-2.79.08-5.46-.49-8.1-1.66l-1.48,1.95c-.4.52-1,.8-1.61.8-.36,0-.72-.15-1.05-.35,3.76,2.18,7.57,3.31,11.6,3.31.26,0,.51,0,.77-.01,7.78-.26,13.5-4.13,17.08-11.72.24-.7.42-1.41.55-2.14Z" fill="#3d3429"/>
  <path d="M679.61,469.23l1.12-1.48c-1.49-1-2.64-2.4-3.34-4.12-.98-2.24-1.53-4.61-1.64-7-.06-4.05-.15-8.1-.24-12.15-.05-2.47-.1-4.93-.15-7.4l-3.11-1.63c-.49-.26-.83-.69-.99-1.18.06,3.43.13,6.86.2,10.29.09,4.04.18,8.08.24,12.18.13,2.95.79,5.81,1.96,8.45,1,2.48,2.71,4.56,4.94,6.01.44.29.88.5,1.32.76-.81-.69-.97-1.89-.32-2.74Z" fill="#3d3429"/>
  <path d="M654.95,459.66l-.68.57c-.32.27-.57.48-.82.67-.88.66-1.76.92-2.43.7-.28-.09-.53-.29-.75-.56.49.61.61,1.47.22,2.21-.36.69-1.06,1.08-1.79,1.08-.32,0-.64-.07-.94-.23l-.36-.19c.66.71,1.45,1.24,2.36,1.54.67.22,1.38.3,2.1.27-2.76,3.69-6.45,5.52-11.39,5.68-3.99.13-7.79-1.02-11.58-3.54-1.54-1-2.72-2.44-3.44-4.21-.98-2.24-1.53-4.61-1.64-7-.03-1.73-.07-3.46-.1-5.2l-3.39-1.78c-.29-.15-.51-.38-.69-.64.05,2.57.11,5.13.15,7.74.13,2.95.79,5.81,1.96,8.45,1,2.48,2.72,4.56,4.94,6.01,4.26,2.83,8.57,4.22,13.16,4.22.26,0,.51,0,.78-.01,7.77-.26,13.49-4.14,17.08-11.72.24-.7.42-1.41.55-2.14.14-.83-.25-1.67-.98-2.09-.73-.43-1.65-.35-2.3.19Z" fill="#3d3429"/>
  <path d="M56.7,451.47c-.03.68-.39,1.29-.97,1.64-.32.2-.68.29-1.05.29-.29,0-.58-.06-.85-.19l-3.76-1.75-8.7,4.42c1.23.88,2.47,1.76,3.7,2.65l28.16-14.31,3.88,27.37c1.36-.19,2.66-.54,3.94-1.02l-3.59-25.36c-2.06-1.25-4.24-2.73-6.51-4.36l-14.1,7.17-.14,3.45Z" fill="#3d3429"/>
  <path d="M79.66,475.22c.05,0,.09-.04.15-.05-.09.02-.17.04-.26.06.04,0,.07,0,.11,0Z" fill="#3d3429"/>
  <path d="M40.32,456.43c-.99.51-1.39,1.72-.89,2.72.51.99,1.72,1.38,2.72.89l2.92-1.49c-1.23-.89-2.47-1.77-3.7-2.65l-1.05.54Z" fill="#3d3429"/>
  <path d="M81.38,472.93l-.33-2.36c-1.27.48-2.58.83-3.94,1.02l.27,1.91c.14,1.01,1.01,1.74,2,1.74.06,0,.12,0,.18-.01.09-.02.17-.04.26-.06,1.02-.23,1.72-1.18,1.57-2.23Z" fill="#3d3429"/>
  <path d="M76.83,440.86c-.09-.65-.49-1.21-1.07-1.51-.58-.3-1.27-.31-1.85,0l-2.97,1.51c2.27,1.63,4.44,3.11,6.51,4.36l-.62-4.35Z" fill="#3d3429"/>
  <path d="M50.07,451.47l6.77-3.44.69-16.74c-1.29-.85-2.6-1.67-3.94-2.47l-.81,19.46-31.97-14.9c-1.1.98-2.19,1.95-3.29,2.92l32.54,15.16Z" fill="#3d3429"/>
  <path d="M56.47,425.83c.06.04.13.07.19.11-.06-.04-.12-.08-.19-.11Z" fill="#3d3429"/>
  <path d="M57.68,427.75c.03-.78-.39-1.45-1.02-1.81-.06-.04-.13-.07-.19-.11-.22-.1-.46-.17-.72-.18-1.03-.04-2.05.82-2.1,1.94l-.05,1.24c1.34.8,2.65,1.62,3.94,2.47l.15-3.54Z" fill="#3d3429"/>
  <path d="M15.35,433.06c-.47,1.01-.03,2.21.98,2.68l1.2.56c1.1-.97,2.19-1.95,3.29-2.92l-2.78-1.3c-1.01-.47-2.21-.03-2.68.98Z" fill="#3d3429"/>
  <path d="M54.68,453.41c.36,0,.73-.1,1.05-.29.58-.35.94-.97.97-1.64l.14-3.45-6.77,3.44,3.76,1.75c.27.13.56.19.85.19Z" fill="#3d3429"/>
  <path d="M397.18,440.06c-.76-.55-1.49-1.04-2.29-1.64-3.43-2.56-7.18-5.33-11.12-7.93l-.69,16.74,14.1-7.17Z" fill="#1a14d9"/>
  <path d="M407.61,469.66c7.55-2.99,14.96-10.31,22.03-21.74,5.67-9.17,3.73-10.64,2.45-11.61-.44-.33-1.21-.92-1.66-1.79-3.28,3.27-3.99,5.21-4,6.29-.01,1,.58,1.67,1.55,2.66.83.85,1.78,1.81,1.72,3.24-.04.88-.46,1.67-1.25,2.35-4.36,3.72-9.43,2.68-16.21-.21-2.82-1.2-5.62-2.66-8.55-4.44l3.59,25.36c.11-.04.22-.07.33-.11Z" fill="#614bf2"/>
  <path d="M343.77,435.51c-.18.16-.35.32-.53.47-3.09,2.74-6.17,5.47-9.22,8.24-1.42,1.28-2.82,2.73-3.45,4.59-.5,1.33-.31,2.74.49,3.83.8,1.1,2.11,1.72,3.43,1.64,1.11-.01,2.03-.63,2.43-1.58.51-1,.41-2.04-.19-2.79-.17-.23-.32-.39-.47-.56-.3-.34-.6-.68-.85-1.06-.71-1.08-.94-2.11-.68-3.08.17-.63.63-1.52,1.88-2.16.57-.29,1.17-.59,1.78-.87,8.18-2.01,15.11,2.89,21.22,7.2l1.01.71c2.35,1.65,4.66,3.34,6.99,5.01l8.7-4.42-32.54-15.16Z" fill="#614bf2"/>
  <path d="M371.3,457.74c1.41,1.02,2.83,2.01,4.23,3.03,4.03,3.04,8.41,5.57,13.03,7.54,5.64,2.29,10.45,3.11,14.77,2.48l-3.88-27.37-28.16,14.31Z" fill="#1a14d9"/>
  <path d="M381.98,424.85c.26.01.5.08.72.18-1.26-.77-2.52-1.54-3.82-2.25-.98-.53-2.21-.17-2.74.81-.53.98-.17,2.21.81,2.74.98.53,1.92,1.12,2.88,1.69l.05-1.24c.05-1.12,1.07-1.97,2.1-1.94Z" fill="#3d3429"/>
  <path d="M434.53,433.1c-.08-.06-.18-.13-.26-.2.04-.07.09-.14.16-.23.25-.33.45-.69.59-1.07.3-.76.1-1.63-.49-2.19l-.87-.83c-.77-.73-1.98-.74-2.77-.02l-.91.82c-.7.63-1.38,1.24-1.96,1.84-3.77,3.64-5.61,6.76-5.64,9.55-.03,2.76,1.69,4.51,2.72,5.55.04.04.08.08.13.13-2.39,1.63-5.43,1.25-11.41-1.3-5.16-2.2-10.25-5.27-16.51-9.95-4.36-3.26-9.2-6.85-14.42-10.05.63.36,1.06,1.04,1.02,1.81l-.15,3.54c3.94,2.6,7.69,5.37,11.12,7.93.79.59,1.52,1.09,2.29,1.64l2.97-1.51c.58-.3,1.27-.29,1.85,0,.58.3.97.86,1.07,1.51l.62,4.35c2.93,1.78,5.73,3.23,8.55,4.44,6.77,2.89,11.85,3.93,16.21.21.8-.68,1.22-1.47,1.25-2.35.06-1.43-.89-2.39-1.72-3.24-.97-.99-1.56-1.66-1.55-2.66.01-1.07.73-3.01,4-6.29.45.87,1.22,1.46,1.66,1.79,1.28.97,3.22,2.44-2.45,11.61-7.06,11.43-14.48,18.74-22.03,21.74-.11.04-.22.07-.33.11l.33,2.36c.15,1.05-.55,2.01-1.57,2.23,1.01-.24,2.03-.54,3.06-.94,8.37-3.32,16.44-11.18,23.97-23.37,6.31-10.2,5.14-14.16,1.46-16.96Z" fill="#3d3429"/>
  <path d="M403.61,472.7l-.27-1.91c-4.33.62-9.13-.2-14.77-2.48-4.62-1.96-9-4.49-13.03-7.54-1.4-1.02-2.83-2.02-4.23-3.03l-2.92,1.49c-1,.5-2.21.11-2.72-.89-.51-.99-.11-2.21.89-2.72l1.05-.54c-2.33-1.67-4.65-3.36-6.99-5.01l-1.01-.71c-6.11-4.31-13.03-9.21-21.22-7.2-.61.27-1.2.57-1.78.87-1.25.64-1.71,1.53-1.88,2.16-.26.97-.03,2.01.68,3.08.25.38.54.72.85,1.06.15.17.3.33.47.56.59.76.69,1.8.19,2.79-.4.95-1.32,1.57-2.43,1.58-1.32.08-2.64-.54-3.43-1.64-.8-1.09-.99-2.5-.49-3.83.64-1.86,2.04-3.3,3.45-4.59,3.05-2.77,6.14-5.5,9.22-8.24.18-.16.35-.32.53-.47l-1.2-.56c-1.01-.47-1.45-1.67-.98-2.68.47-1.01,1.67-1.45,2.68-.98l2.78,1.3c.79-.7,1.59-1.41,2.38-2.11.83-.74.9-2.02.16-2.85-.74-.83-2.02-.9-2.85-.16l-6.18,5.5c-3.1,2.74-6.19,5.49-9.26,8.26-1.73,1.57-3.63,3.54-4.54,6.22-.96,2.55-.58,5.38,1.03,7.58s4.22,3.44,6.82,3.3c2.64-.03,5.01-1.62,5.97-3.91,1.16-2.25.9-5-.63-6.95-.2-.28-.43-.53-.66-.79-.08-.09-.17-.19-.27-.31.3-.16.56-.29.67-.37,6.07-1.44,11.92,2.69,17.58,6.7l1.02.72c4.99,3.5,9.94,7.06,14.84,10.63,4.27,3.22,8.93,5.92,13.89,8.02,3.53,1.43,8.23,3.01,13.41,3.01,1.74,0,3.53-.21,5.35-.62-.06,0-.12.01-.18.01-.99,0-1.85-.73-2-1.74Z" fill="#3d3429"/>
  <path d="M382.93,450.67c-.03.68-.39,1.29-.97,1.64-.32.2-.68.29-1.05.29-.29,0-.58-.06-.85-.19l-3.76-1.75-8.7,4.42c1.23.88,2.47,1.76,3.7,2.65l28.16-14.31,3.88,27.37c1.36-.19,2.66-.54,3.94-1.02l-3.59-25.36c-2.06-1.25-4.24-2.73-6.51-4.36l-14.1,7.17-.14,3.45Z" fill="#3d3429"/>
  <path d="M366.55,455.62c-.99.51-1.39,1.72-.89,2.72.51.99,1.72,1.38,2.72.89l2.92-1.49c-1.23-.89-2.47-1.77-3.7-2.65l-1.05.54Z" fill="#3d3429"/>
  <path d="M407.61,472.13l-.33-2.36c-1.27.48-2.58.83-3.94,1.02l.27,1.91c.14,1.01,1.01,1.74,2,1.74.06,0,.12,0,.18-.01.09-.02.17-.04.26-.06,1.02-.23,1.72-1.18,1.57-2.23Z" fill="#3d3429"/>
  <path d="M403.07,440.06c-.09-.65-.49-1.21-1.07-1.51-.58-.3-1.27-.31-1.85,0l-2.97,1.51c2.27,1.63,4.44,3.11,6.51,4.36l-.62-4.35Z" fill="#3d3429"/>
  <path d="M376.3,450.67l6.77-3.44.69-16.74c-1.29-.85-2.6-1.67-3.94-2.47l-.81,19.46-31.97-14.9c-1.1.98-2.19,1.95-3.29,2.92l32.54,15.16Z" fill="#3d3429"/>
  <path d="M382.7,425.03c.06.04.13.07.19.11-.06-.04-.12-.08-.19-.11Z" fill="#3d3429"/>
  <path d="M383.92,426.95c.03-.78-.39-1.45-1.02-1.81-.06-.04-.13-.07-.19-.11-.22-.1-.46-.17-.72-.18-1.03-.04-2.05.82-2.1,1.94l-.05,1.24c1.34.8,2.65,1.62,3.94,2.47l.15-3.54Z" fill="#3d3429"/>
  <path d="M341.59,432.26c-.47,1.01-.03,2.21.98,2.68l1.2.56c1.1-.97,2.19-1.95,3.29-2.92l-2.78-1.3c-1.01-.47-2.21-.03-2.68.98Z" fill="#3d3429"/>
  <path d="M380.91,452.61c.36,0,.73-.1,1.05-.29.58-.35.94-.97.97-1.64l.14-3.45-6.77,3.44,3.76,1.75c.27.13.56.19.85.19Z" fill="#3d3429"/>
  <path d="M169.46,467.74c-.1.07-.19.16-.29.23.11-.07.19-.14.29-.23Z" fill="#3d3429"/>
  <path d="M116.55,454.2s-.06-.09-.08-.13c.02.05.05.09.08.13Z" fill="#3d3429"/>
  <path d="M163.3,467.12c.85-.49,1.68-1.01,2.48-1.59.63-.45,1.19-.99,1.81-1.45l-11.26-2.97-4.54,2.42c-.3.16-.63.24-.95.24-.72,0-1.42-.39-1.79-1.07-.52-.98-.15-2.21.83-2.73l.7-.37-30.87-8.16c.79,1.7,1.7,3.34,2.75,4.91l40.84,10.79Z" fill="#3d3429"/>
  <path d="M168.64,464.35l-1.06-.28c-.62.47-1.18,1-1.81,1.45-.8.58-1.63,1.11-2.48,1.59l4.31,1.14c.17.05.35.07.52.07.38,0,.73-.16,1.05-.35.1-.07.19-.16.29-.23.27-.25.51-.54.61-.92.29-1.08-.36-2.19-1.44-2.47Z" fill="#3d3429"/>
  <path d="M117.73,455.08l4.73,1.25c-1.05-1.56-1.96-3.21-2.75-4.91l-.94-.25c-1.07-.28-2.19.36-2.47,1.44-.14.51-.05,1.02.18,1.46.02.05.06.09.08.13.26.41.67.74,1.18.88Z" fill="#3d3429"/>
  <path d="M196.14,430.12c-1.07-.32-2.2.27-2.53,1.33-.7,2.27-1.67,4.47-2.76,6.66l-40.28,21.47,5.75,1.52,30.43-16.22c-1.66,2.34-3.48,4.68-5.69,7.06-4.1,4.44-8.66,8.46-13.48,12.13l1.06.28c1.08.28,1.72,1.39,1.44,2.47-.1.38-.35.67-.61.92,5.22-3.92,10.15-8.27,14.57-13.05,6.79-7.36,11.07-14.36,13.44-22.04.33-1.07-.27-2.2-1.33-2.53Z" fill="#3d3429"/>
  <path d="M149.04,462.69c.36.68,1.06,1.07,1.79,1.07.32,0,.65-.08.95-.24l4.54-2.42-5.75-1.52-.7.37c-.98.52-1.36,1.75-.83,2.73Z" fill="#3d3429"/>
  <path d="M814.84,462.87c4.82-3.67,9.38-7.69,13.48-12.13,2.21-2.39,4.03-4.73,5.69-7.06l-30.43,16.22,11.26,2.97Z" fill="#614bf2"/>
  <path d="M773.24,459.62c9.75,10.52,25.6,13.02,37.31,6.3l-40.84-10.79c1.06,1.57,2.22,3.08,3.53,4.49Z" fill="#1a14d9"/>
  <path d="M816.72,466.54c-.1.07-.19.16-.29.23.11-.07.19-.14.29-.23Z" fill="#3d3429"/>
  <path d="M764.99,453.88l4.73,1.25c-1.05-1.56-1.96-3.21-2.75-4.91l-.94-.25c-1.07-.28-2.19.36-2.47,1.44-.14.51-.05,1.02.18,1.46.02.05.06.09.08.13.26.41.67.74,1.18.88Z" fill="#3d3429"/>
  <path d="M485.87,447.48c-.04-1.69.07-3.2.64-4.45l-43.37,13.97c.49,1.27,1.08,2.51,1.79,3.67l40.94-13.19Z" fill="#3d3429"/>
  <path d="M485.87,447.48l2.66-.86c1.06-.34,1.65-1.48,1.3-2.54-.34-1.06-1.48-1.64-2.54-1.3l-.79.25c-.56,1.25-.68,2.76-.64,4.45Z" fill="#3d3429"/>
  <path d="M440.07,460.11c.28.86,1.07,1.4,1.92,1.4.21,0,.41-.03.62-.1l2.31-.75c-.72-1.16-1.3-2.4-1.79-3.67l-1.76.57c-1.06.34-1.65,1.48-1.3,2.54Z" fill="#3d3429"/>
  <path d="M494.13,451.22l18.28,18.69c1.57-.26,3.01-.72,4.31-1.37l-10.35-10.58-2.63,1.19c-.27.12-.55.18-.83.18-.77,0-1.51-.44-1.84-1.19-.46-1.02,0-2.21,1.01-2.67l1.29-.58-9.09-9.29c0,1.23-.05,2.74-.12,4.72-.01.28-.02.61-.03.9Z" fill="#3d3429"/>
  <path d="M517.13,472.76c-.08.03-.16.07-.24.1.08-.03.16-.06.24-.1Z" fill="#3d3429"/>
  <path d="M490.84,444.97c-.8.78-.81,2.06-.03,2.86l3.32,3.39c.01-.29.02-.62.03-.9.07-1.98.12-3.49.12-4.72l-.58-.59c-.78-.8-2.06-.81-2.86-.03Z" fill="#3d3429"/>
  <path d="M517.71,469.54l-.98-1.01c-1.3.65-2.74,1.11-4.31,1.37l2.4,2.46c.4.4.92.61,1.44.61.21,0,.42-.05.63-.12.08-.03.16-.07.24-.1.19-.09.39-.2.55-.36.8-.78.81-2.06.03-2.86Z" fill="#3d3429"/>
  <path d="M527.13,448.57c.09-1.45.09-2.93-.02-4.43l-23.74,10.75,3.01,3.07,20.75-9.39Z" fill="#3d3429"/>
  <path d="M531.2,445.22c0,.09,0,.19,0,.28,0-.09,0-.18,0-.28Z" fill="#3d3429"/>
  <path d="M527.13,448.57l2.92-1.32c.71-.32,1.12-1.01,1.16-1.74,0-.09,0-.19,0-.28-.02-.22-.05-.44-.15-.65-.46-1.02-1.66-1.47-2.67-1.01l-1.27.58c.11,1.5.11,2.97.02,4.43Z" fill="#3d3429"/>
  <path d="M501.07,458.14c.34.75,1.07,1.19,1.84,1.19.28,0,.56-.06.83-.18l2.63-1.19-3.01-3.07-1.29.58c-1.02.46-1.47,1.66-1.01,2.67Z" fill="#3d3429"/>
  <path d="M1529.79,466.19c3.34,2.84,8.29,4.37,14.73,4.56l.46.02c9.99.54,16.5-2.65,19.9-9.8,1.53-4.13,1.31-8.22,1.14-11.51-.04-.68-.06-1.33-.08-1.97l-40.94,13.19c1.27,2.06,2.88,3.93,4.8,5.52Z" fill="#614bf2"/>
  <path d="M1596.79,468.54c2.33-1.17,4.25-2.96,5.77-5.41,2.8-4.49,4.33-9.37,4.64-14.57l-20.75,9.39,10.35,10.58Z" fill="#614bf2"/>
  <path d="M1574.04,457.93c-.02,5.81,2.9,9.82,8.2,11.3,1.93.54,3.91.86,5.89.95,1.55.06,2.99-.04,4.34-.27l-18.28-18.69c-.07,2.07-.15,4.33-.15,6.71Z" fill="#1a14d9"/>
  <path d="M1520.14,460.11c.28.86,1.07,1.4,1.92,1.4.21,0,.41-.03.62-.1l2.31-.75c-.72-1.16-1.3-2.4-1.79-3.67l-1.76.57c-1.06.34-1.65,1.48-1.3,2.54Z" fill="#3d3429"/>
  <path d="M1597.19,472.76c-.08.03-.16.07-.24.1.08-.03.16-.06.24-.1Z" fill="#3d3429"/>
  <path d="M1597.77,469.54l-.98-1.01c-1.3.65-2.74,1.11-4.31,1.37l2.4,2.46c.4.4.92.61,1.44.61.21,0,.42-.05.63-.12.08-.03.16-.07.24-.1.19-.09.39-.2.55-.36.8-.78.81-2.06.03-2.86Z" fill="#3d3429"/>
  <path d="M1611.27,445.22c-.05-1.37-.15-2.75-.35-4.15-.43-2.7-1.56-5.26-3.28-7.39-.7-.87-1.97-1.01-2.84-.31-.87.7-1.01,1.97-.31,2.84,1.27,1.58,2.11,3.48,2.42,5.45.12.83.19,1.65.25,2.47l-23.74,10.75-9.09-9.29c0-2.76-.21-3.95-.97-4.73-.38-.39-1.1-.71-1.65-.71-1.91,0-3.32.51-4.32,1.56-.37.39-.62.85-.84,1.33l-43.37,13.97c.49,1.27,1.08,2.51,1.79,3.67l40.94-13.19c.02.64.04,1.29.08,1.97.17,3.29.39,7.38-1.14,11.51-3.4,7.16-9.9,10.35-19.9,9.8l-.46-.02c-6.45-.2-11.39-1.73-14.73-4.56-1.91-1.59-3.53-3.45-4.8-5.52l-2.31.75c-.21.07-.41.1-.62.1-.85,0-1.65-.54-1.92-1.4-.34-1.06.24-2.2,1.3-2.54l1.76-.57c-.96-2.47-1.51-5.1-1.54-7.82-.02-1.11-.92-1.99-2.02-1.99h-.03c-1.12.02-2.01.93-1.99,2.05.11,7.78,3.61,15.09,9.58,20.04,4.03,3.43,9.82,5.28,17.56,5.52.8.05,1.58.07,2.35.07,10.38,0,17.59-4.1,21.49-12.33.8-2.16,1.22-4.26,1.42-6.22,0,.53-.01,1.06-.01,1.6-.02,7.57,4.15,13.25,11.15,15.2,2.22.63,4.51.99,6.83,1.09,3.34.14,6.33-.34,8.97-1.36-.2.07-.41.12-.63.12-.52,0-1.05-.2-1.44-.61l-2.4-2.46c-1.35.23-2.79.32-4.34.27-1.99-.09-3.97-.41-5.89-.95-5.3-1.48-8.22-5.49-8.2-11.3,0-2.38.08-4.64.15-6.71l18.28,18.69c1.57-.26,3.01-.72,4.31-1.37l-10.35-10.58,20.75-9.39c-.31,5.2-1.84,10.08-4.64,14.57-1.52,2.44-3.43,4.23-5.77,5.41l.98,1.01c.78.8.77,2.08-.03,2.86-.16.16-.35.26-.55.36,3.62-1.45,6.58-3.93,8.79-7.49,3.75-6.02,5.5-12.65,5.29-19.77,0-.09,0-.19,0-.28ZM1570.19,450.17c-.01.37-.03.76-.04,1.15-.03-.73-.06-1.43-.1-2.08-.1-1.93-.22-4.11.25-4.71.04,1.41-.04,3.62-.12,5.64Z" fill="#3d3429"/>
  <path d="M567.97,471.32c-.07.04-.14.09-.21.13.08-.03.13-.09.21-.13Z" fill="#3d3429"/>
  <path d="M541.61,452.11l21.54,17.07c1.41-.51,2.68-1.24,3.86-2.1l-16.41-13-.69,1.45c-.35.73-1.07,1.16-1.83,1.16-.29,0-.58-.06-.86-.2-1.01-.48-1.44-1.68-.96-2.69l1.09-2.3-5.81-4.6c0,1.74,0,3.48.07,5.21Z" fill="#3d3429"/>
  <path d="M537.93,446.62c-.69.87-.54,2.15.33,2.84l3.35,2.65c-.06-1.73-.08-3.47-.07-5.21l-.77-.61c-.87-.69-2.15-.54-2.84.33Z" fill="#3d3429"/>
  <path d="M568.21,468.03l-1.2-.95c-1.18.86-2.45,1.59-3.86,2.1l2.55,2.02c.37.29.81.44,1.25.44.28,0,.55-.07.81-.18.07-.04.14-.09.21-.13.21-.12.41-.25.57-.45.69-.87.54-2.15-.33-2.84Z" fill="#3d3429"/>
  <path d="M562.96,427.99c-.04-3.07-.07-6.15-.1-9.22l-15.5,32.74,3.25,2.57,12.36-26.09Z" fill="#3d3429"/>
  <path d="M566.59,420.32c.48-1.01.05-2.21-.96-2.69-1-.47-2.21-.05-2.69.96l-.08.18c.03,3.07.07,6.15.1,9.22l3.63-7.67Z" fill="#3d3429"/>
  <path d="M547.23,456.49c.28.13.57.2.86.2.76,0,1.48-.43,1.83-1.16l.69-1.45-3.25-2.57-1.09,2.3c-.48,1.01-.05,2.21.96,2.69Z" fill="#3d3429"/>
  <path d="M1473.68,467.08c1.92-1.4,3.59-3.21,4.95-5.56-1.25.09-2.55-.13-3.79-.71-2.87-1.35-4.71-4.25-4.67-7.39.02-1.89-.08-3.77-.19-5.66-.08-1.55-.17-3.11-.19-4.66-.07-5.04-.11-10.07-.17-15.11l-12.36,26.09,16.41,13Z" fill="#614bf2"/>
  <path d="M1448.34,453.85c.29,4.59,1.28,8.06,3.12,10.92,2.57,3.97,5.84,5.9,9.84,5.77,1.42-.03,2.85-.2,4.26-.36,1.53-.18,2.94-.53,4.26-1.01l-21.54-17.07c.02.58.02,1.16.06,1.74Z" fill="#1a14d9"/>
  <path d="M1472.37,471.19l-2.55-2.02c-1.32.48-2.73.83-4.26,1.01-1.41.16-2.84.33-4.26.36-4,.12-7.27-1.8-9.84-5.77-1.85-2.85-2.84-6.32-3.12-10.92-.04-.58-.04-1.16-.06-1.74l-3.35-2.65c-.87-.69-1.02-1.96-.33-2.84.69-.87,1.96-1.02,2.84-.33l.77.61c0-.22,0-.44,0-.65,0-1.17.01-2.33,0-3.5-.06-7.42-.12-14.83-.17-22.25,0-1.11-.91-2.01-2.02-2.01h-.01c-1.11,0-2.01.92-2.01,2.03.05,7.42.1,14.84.17,22.26,0,1.15,0,2.3,0,3.45-.01,2.63-.03,5.26.13,7.88.33,5.24,1.56,9.45,3.77,12.86,3.28,5.06,7.64,7.62,12.96,7.62.12,0,.24,0,.36,0,1.55-.03,3.1-.21,4.64-.39,3.14-.36,5.93-1.3,8.41-2.75-.26.11-.53.18-.81.18-.44,0-.88-.14-1.25-.44Z" fill="#3d3429"/>
  <path d="M1481.77,455.93c-.39.09-.78.23-1.13.41-.14.07-.28.16-.4.26-1.5,1.27-2.95.89-3.67.54-1.42-.66-2.36-2.15-2.35-3.69.02-1.97-.08-3.95-.19-5.92-.08-1.5-.16-3-.18-4.5-.17-12.29-.31-24.58-.41-36.87,0-1.11-.91-2-2.02-2h-.02c-1.12,0-2.01.92-2,2.04.03,4.19.1,8.37.14,12.56l.08-.18c.48-1.01,1.68-1.43,2.69-.96,1.01.48,1.44,1.68.96,2.69l-3.63,7.67c.06,5.04.1,10.07.17,15.11.02,1.55.11,3.11.19,4.66.1,1.89.21,3.78.19,5.66-.03,3.15,1.8,6.05,4.67,7.39,1.23.58,2.54.8,3.79.71-1.36,2.35-3.03,4.15-4.95,5.56l1.2.95c.87.69,1.02,1.96.33,2.84-.16.2-.36.33-.57.45,3.6-2.17,6.5-5.48,8.64-10,.37-.96.68-1.95.92-2.96.16-.68-.05-1.4-.54-1.89s-1.21-.7-1.89-.53Z" fill="#3d3429"/>
  <path d="M1474.64,471.32c-.07.04-.14.09-.21.13.08-.03.13-.09.21-.13Z" fill="#3d3429"/>
  <path d="M1448.28,452.11l21.54,17.07c1.41-.51,2.68-1.24,3.86-2.1l-16.41-13-.69,1.45c-.35.73-1.07,1.16-1.83,1.16-.29,0-.58-.06-.86-.2-1.01-.48-1.44-1.68-.96-2.69l1.09-2.3-5.81-4.6c0,1.74,0,3.48.07,5.21Z" fill="#3d3429"/>
  <path d="M1444.61,446.62c-.69.87-.54,2.15.33,2.84l3.35,2.65c-.06-1.73-.08-3.47-.07-5.21l-.77-.61c-.87-.69-2.15-.54-2.84.33Z" fill="#3d3429"/>
  <path d="M1474.88,468.03l-1.2-.95c-1.18.86-2.45,1.59-3.86,2.1l2.55,2.02c.37.29.81.44,1.25.44.28,0,.55-.07.81-.18.07-.04.14-.09.21-.13.21-.12.41-.25.57-.45.69-.87.54-2.15-.33-2.84Z" fill="#3d3429"/>
  <path d="M1469.63,427.99c-.04-3.07-.07-6.15-.1-9.22l-15.5,32.74,3.25,2.57,12.36-26.09Z" fill="#3d3429"/>
  <path d="M1473.26,420.32c.48-1.01.05-2.21-.96-2.69-1-.47-2.21-.05-2.69.96l-.08.18c.03,3.07.07,6.15.1,9.22l3.63-7.67Z" fill="#3d3429"/>
  <path d="M1453.9,456.49c.28.13.57.2.86.2.76,0,1.48-.43,1.83-1.16l.69-1.45-3.25-2.57-1.09,2.3c-.48,1.01-.05,2.21.96,2.69Z" fill="#3d3429"/>
  <path d="M650.27,461.04s-.04-.04-.06-.06c.02.02.04.03.06.06Z" fill="#3d3429"/>
  <path d="M640.96,458.25c-.31.18-.65.26-.99.26-.71,0-1.39-.37-1.76-1.03l-2.36-4.2-12.24-6.43c.03,1.54.06,3.07.09,4.61l23.69,12.45c-.71-.76-1.26-1.73-1.61-2.89-.27-.93-.46-1.87-.59-2.83l-3.23-1.7c0,.71-.34,1.4-1,1.77Z" fill="#3d3429"/>
  <path d="M619.46,446.94c-.37.69-.27,1.49.15,2.09-.02-.74-.03-1.49-.04-2.23-.03.05-.08.08-.11.14Z" fill="#3d3429"/>
  <path d="M620.31,449.66l3.39,1.78c-.03-1.54-.06-3.07-.09-4.61l-1.43-.75c-.93-.49-2.06-.16-2.62.71.02.74.03,1.49.04,2.23.18.25.4.48.69.64Z" fill="#3d3429"/>
  <path d="M647.4,463.9l.36.19c.3.16.62.23.94.23.73,0,1.43-.39,1.79-1.08.39-.73.27-1.6-.22-2.21-.02-.02-.04-.03-.06-.06-.16-.18-.34-.35-.57-.46l-4.44-2.34c.13.96.32,1.9.59,2.83.34,1.16.9,2.13,1.61,2.89Z" fill="#3d3429"/>
  <path d="M623.32,430.91l12.54,22.36,6.11,3.21c0-.33-.05-.67-.23-.98l-18.45-32.91c0,.54,0,1.08,0,1.62,0,2.24,0,4.47.03,6.71Z" fill="#3d3429"/>
  <path d="M619.25,423.33s0-.07,0-.1c0,.03,0,.07,0,.1Z" fill="#3d3429"/>
  <path d="M623.32,430.91c-.02-2.23-.03-4.47-.03-6.71,0-.54,0-1.08,0-1.62l-.28-.49c-.55-.97-1.77-1.32-2.75-.77-.7.39-1.07,1.15-1.01,1.91,0,.03,0,.07,0,.1.03.25.11.51.24.74l3.83,6.84Z" fill="#3d3429"/>
  <path d="M638.21,457.47c.37.66,1.06,1.03,1.76,1.03.33,0,.67-.08.99-.26.66-.37,1-1.06,1-1.77l-6.11-3.21,2.36,4.2Z" fill="#3d3429"/>
  <path d="M671.28,434.28c0-.34-.01-.68-.02-1.02-.07.34-.08.69.02,1.02Z" fill="#3d3429"/>
  <path d="M695.84,447.81l-15.1,19.94s.06.07.1.09c1.15.77,2.31,1.36,3.47,1.88l12.62-16.65c-.04-3.44-.07-6.53-.11-9.3l-21.53-11.28c.02,1.54.06,3.07.09,4.61l20.46,10.72Z" fill="#3d3429"/>
  <path d="M680.01,472.06c.05.04.12.02.17.06-.08-.05-.16-.09-.25-.14.03.03.04.06.07.08Z" fill="#3d3429"/>
  <path d="M700.5,448.35c.36-.47.49-1.08.36-1.66-.13-.58-.51-1.07-1.03-1.35l-3.01-1.58c.04,2.78.07,5.86.11,9.3l3.57-4.72Z" fill="#3d3429"/>
  <path d="M672.26,435.46l3.11,1.63c-.03-1.54-.07-3.07-.09-4.61l-1.14-.6c-.99-.52-2.21-.13-2.73.85-.09.17-.12.35-.15.53,0,.34.01.68.02,1.02.16.49.5.92.99,1.18Z" fill="#3d3429"/>
  <path d="M682.83,471.67l1.48-1.95c-1.16-.51-2.32-1.11-3.47-1.88-.04-.03-.06-.07-.1-.09l-1.12,1.48c-.65.86-.49,2.06.32,2.74.08.05.16.09.25.14.33.2.68.35,1.05.35.61,0,1.22-.28,1.61-.8Z" fill="#3d3429"/>
  <path d="M728.21,435.4l19.42,12.9-22.03,25.92c-.16.85-.28,1.7-.46,2.55-.49,2.3-1.14,4.43-1.9,6.46l25.48-29.98-.13-9.17-20.33-13.51c0,1.6-.01,3.21-.05,4.82Z" fill="#3d3429"/>
  <path d="M752.18,449.18c.37-.44.54-1.02.46-1.59s-.4-1.08-.88-1.4l-3.17-2.11.13,9.17,3.46-4.07Z" fill="#3d3429"/>
  <path d="M724.57,430.55c-.62.93-.36,2.18.56,2.8l3.08,2.04c.04-1.61.06-3.22.05-4.82l-.89-.59c-.93-.62-2.18-.36-2.8.56Z" fill="#3d3429"/>
  <path d="M725.6,474.22l-5.61,6.6c-.72.85-.62,2.12.23,2.85.38.32.84.48,1.31.48.57,0,1.14-.24,1.54-.71l.17-.2c.76-2.03,1.41-4.17,1.9-6.46.18-.85.3-1.7.46-2.55Z" fill="#3d3429"/>
  <path d="M867.75,426.54s-.03.03-.05.04c.02-.01.05-.03.07-.04,0,0-.02,0-.02,0Z" fill="#3d3429"/>
  <path d="M909.86,458.75c-.79-.79-2.07-.79-2.86,0-.2.2-.55.55-.97.96l-21.75-2.98-12.94-27.33c3.27-1.1,6.51-.62,9.67,1.47.92.62,2.18.37,2.8-.57.62-.93.36-2.18-.57-2.8-4.98-3.31-10.28-3.62-15.47-.98-.02.01-.05.03-.07.04-.68.35-1.37.74-2.04,1.2-8.63,5.85-15.77,13.32-21.23,22.22-1.79,2.95-2.55,6.46-2.16,9.86.44,4.23,3.83,7.58,8.01,7.94,4.12.48,8.27-2.34,8.83-6.05.25-1.67-.1-3.31-1-4.66.21.14.41.29.62.44,1.73,1.33,3.39,2.73,5.06,4.14,1.07.89,2.13,1.79,3.21,2.67l.85.69c2.14,1.75,4.28,3.5,6.49,5.12,3.01,2.27,6.4,3.88,10.09,4.77,1.57.36,3.1.55,4.57.55,4.04,0,7.7-1.37,10.93-4.09,1.07-.91,9.86-9.67,9.94-9.76.79-.79.79-2.07,0-2.86ZM850.69,463.78c-2.31-.21-4.16-2.03-4.41-4.37-.18-1.56-.04-3.15.41-4.65.22.86.88,1.8,2.5,2.48.52.2,1.06.34,1.55.42.26.05.52.07.97.09,1.33.18,2.38.7,2.95,1.46.41.54.56,1.19.45,1.93-.21,1.4-2.23,2.9-4.42,2.63ZM859.78,453.38c-1.22-.8-2.47-1.56-3.74-2.19-1.96-1.04-4.08-1.05-5.75-.92-.51,0-1,.11-1.44.3,4.98-7.67,11.34-14.16,18.91-19.31l11.75,24.83-19.73-2.7ZM897.31,468.29c-3.41,2.89-7.33,3.77-11.95,2.7-3.13-.76-6.02-2.13-8.62-4.08-2.17-1.59-4.26-3.3-6.34-5l-.86-.7c-1.06-.86-2.11-1.75-3.15-2.63-.1-.08-.21-.17-.31-.25l36.34,4.98c-2.32,2.3-4.7,4.63-5.11,4.98Z" fill="#3d3429"/>
  <path d="M204.37,456.95c-.45-.02-.72-.04-.97-.09-.49-.08-1.03-.22-1.55-.42-1.62-.68-2.28-1.62-2.5-2.48-.45,1.5-.59,3.09-.41,4.65.24,2.34,2.09,4.16,4.41,4.37,2.19.27,4.21-1.23,4.42-2.63.11-.74-.04-1.38-.45-1.93-.58-.77-1.63-1.29-2.95-1.46Z" fill="#1a14d9"/>
  <path d="M220.41,430.45c-7.57,5.16-13.93,11.64-18.91,19.31.44-.19.93-.3,1.44-.3,1.67-.12,3.79-.12,5.75.92,1.28.63,2.53,1.39,3.74,2.19l19.73,2.7-11.75-24.83Z" fill="#614bf2"/>
  <path d="M219.05,457.77c1.05.88,2.09,1.76,3.15,2.63l.86.7c2.09,1.7,4.17,3.41,6.34,5,2.59,1.96,5.48,3.32,8.62,4.08,4.62,1.07,8.54.19,11.95-2.7.42-.35,2.79-2.68,5.11-4.98l-36.34-4.98c.1.08.21.17.31.25Z" fill="#1a14d9"/>
  <path d="M259.66,457.96c-.2.2-.55.55-.97.96l.99.14c1.11.15,1.88,1.17,1.73,2.28-.14,1.01-1,1.75-2,1.75-.09,0-.19,0-.28-.02l-4.05-.56c-2.32,2.3-4.7,4.63-5.11,4.98-3.41,2.89-7.33,3.77-11.95,2.7-3.13-.76-6.02-2.13-8.62-4.08-2.17-1.59-4.26-3.3-6.34-5l-.86-.7c-1.06-.86-2.11-1.75-3.15-2.63-.1-.08-.21-.17-.31-.25l-7.25-.99c-1.11-.15-1.88-1.17-1.73-2.28.15-1.11,1.18-1.88,2.28-1.73l.39.05c-1.22-.8-2.47-1.56-3.74-2.19-1.96-1.04-4.08-1.05-5.75-.92-.51,0-1,.11-1.44.3,4.98-7.67,11.34-14.16,18.91-19.31l-.96-2.02c-.47-.99-.05-2.16.92-2.66-.68.35-1.37.74-2.04,1.2-8.63,5.85-15.77,13.32-21.23,22.22-1.79,2.95-2.55,6.46-2.16,9.86.44,4.23,3.83,7.58,8.01,7.94,4.12.48,8.27-2.34,8.83-6.05.25-1.67-.1-3.31-1-4.66.21.14.41.29.62.44,1.73,1.33,3.39,2.73,5.06,4.14,1.07.89,2.13,1.79,3.21,2.67l.85.69c2.14,1.75,4.28,3.5,6.49,5.12,3.01,2.27,6.4,3.88,10.09,4.77,1.57.36,3.1.55,4.57.55,4.04,0,7.7-1.37,10.93-4.09,1.07-.91,9.86-9.67,9.94-9.76.79-.79.79-2.07,0-2.86-.79-.79-2.07-.79-2.86,0ZM203.11,453.5h0,0,0ZM203.35,462.98c-2.31-.21-4.16-2.03-4.41-4.37-.18-1.56-.04-3.15.41-4.65.22.86.88,1.8,2.5,2.48.52.2,1.06.34,1.55.42.26.05.52.07.97.09,1.33.18,2.38.7,2.95,1.46.41.54.56,1.19.45,1.93-.21,1.4-2.23,2.9-4.42,2.63Z" fill="#3d3429"/>
  <path d="M223.1,426.7l.9,1.9c3.27-1.1,6.51-.62,9.67,1.47.92.62,2.18.37,2.8-.57.62-.93.36-2.18-.57-2.8-4.98-3.31-10.28-3.62-15.47-.98,1-.46,2.19-.04,2.67.97Z" fill="#3d3429"/>
  <path d="M236.45,459.62c-.28.13-.57.19-.86.19-.75,0-1.48-.43-1.83-1.16l-1.6-3.37-19.73-2.7c.46.3.93.59,1.37.91,1.71,1.32,3.33,2.68,4.94,4.03l36.34,4.98c1.37-1.35,2.7-2.67,3.61-3.58l-21.75-2.98.47.99c.48,1.01.05,2.21-.96,2.69Z" fill="#3d3429"/>
  <path d="M212.43,452.58l-.39-.05c-1.1-.15-2.13.62-2.28,1.73-.15,1.1.62,2.12,1.73,2.28l7.25.99c-1.61-1.36-3.23-2.71-4.94-4.03-.44-.32-.91-.61-1.37-.91Z" fill="#3d3429"/>
  <path d="M259.13,463.06c.09.01.19.02.28.02.99,0,1.86-.73,2-1.75.15-1.1-.62-2.12-1.73-2.28l-.99-.14c-.92.91-2.25,2.23-3.61,3.58l4.05.56Z" fill="#3d3429"/>
  <path d="M220.41,430.45l11.75,24.83,4.78.66-12.94-27.33c-1.14.38-2.28.95-3.42,1.72-.06.04-.11.09-.17.13Z" fill="#3d3429"/>
  <path d="M220.41,425.74s-.03.03-.05.04c.02-.01.05-.03.07-.04,0,0-.02,0-.02,0Z" fill="#3d3429"/>
  <path d="M219.45,428.43l.96,2.02c.06-.04.11-.09.17-.13,1.14-.77,2.28-1.34,3.42-1.72l-.9-1.9c-.48-1.01-1.67-1.43-2.67-.97-.02.01-.05.03-.07.04-.97.49-1.38,1.67-.92,2.66Z" fill="#3d3429"/>
  <path d="M233.76,458.66c.35.73,1.07,1.16,1.83,1.16.29,0,.58-.06.86-.19,1.01-.48,1.44-1.68.96-2.69l-.47-.99-4.78-.66,1.6,3.37Z" fill="#3d3429"/>
  <path d="M1059.09,473.58c.3.16.63.24.95.24.72,0,1.42-.39,1.78-1.07.53-.98.16-2.21-.82-2.73l-.18-.1c-1.43.92-3,1.63-4.7,2.06l2.97,1.59Z" fill="#3d3429"/>
  <path d="M1074.21,448.19c-.01-1.82-.12-3.67-.39-5.55-.16-1.1-1.2-1.88-2.28-1.71-1.1.16-1.87,1.18-1.72,2.29.18,1.27.27,2.51.32,3.75l-29.45,12.17-5.34-2.87c-.02-.51-.03-1.07-.05-1.74-.02-.8-.51-1.5-1.24-1.81-.72-.3-1.57-.16-2.16.39l-9.08,8.5-35.08-9.77s-.05-.04-.07-.06c-1.82-1.71-4.31-2.56-6.76-2.35,1.5-4.49,1.48-9.05,1.45-13.48v-2.07c0-1.11-.91-2.02-2.02-2.02h0c-1.11,0-2.02.9-2.02,2.02v2.1c.04,4.7.07,9.14-1.67,13.33-.56,1.34-.15,2.33.14,2.8.3.48,1.03,1.31,2.51,1.42.52.05,1.04.05,1.61-.03,1.45-.23,2.94.22,4.08,1.29.99.85,1.93,1.76,2.87,2.68l4.8,4.58c2.83,2.7,5.66,5.4,8.57,8.05,2.05,1.83,4.54,3.14,7.17,3.79,3.28.88,6.17.29,8.61-1.74,1.26-1.05,2.49-2.13,3.71-3.21.91-.8,1.82-1.61,2.82-2.46l7.95-7.44c1.04,8.8,7.48,15.51,16.54,17.16,1.33.24,2.66.36,3.97.36,6.85,0,13.14-3.26,16.69-8.88,3.72-5.88,5.56-12.35,5.56-19.28,0-.07,0-.14,0-.21ZM1018.03,465.9c-1.2,1.06-2.39,2.11-3.62,3.13-1.43,1.19-2.97,1.48-5.03.93-2.02-.5-3.92-1.5-5.46-2.87-2.86-2.62-5.68-5.3-8.49-7.98l-1.4-1.34,25.25,7.03c-.42.37-.84.73-1.26,1.1ZM1065.24,465.52c-1.14,1.8-2.67,3.27-4.42,4.41l.18.1c.98.53,1.35,1.75.82,2.73-.36.68-1.06,1.07-1.78,1.07-.32,0-.65-.08-.95-.24l-2.97-1.59c-2.33.59-4.84.69-7.39.23-6.3-1.15-10.99-5.34-12.67-11l20.06,10.77c1.69-.43,3.27-1.14,4.7-2.06l-15.52-8.33,24.75-10.23c-.45,5.05-2.04,9.79-4.8,14.15Z" fill="#3d3429"/>
  <path d="M1170.55,441.76c-.12-1.11-1.15-1.92-2.23-1.79-1.11.12-1.91,1.12-1.79,2.23.8,7.31-.4,13.69-3.44,19.53l-29.14-4.84c-.14-1.04-.25-2.08-.36-3.23l-.21-2.15c-.09-.82-.66-1.5-1.45-1.73s-1.64.05-2.15.69c-.16.2-.31.42-.47.67l-28.66,14.11c-1.63-1.93-2.98-4.1-3.94-6.44-1.4-3.42-2.83-6.82-4.32-10.2-.45-1.02-1.66-1.48-2.66-1.03-1.02.45-1.48,1.64-1.03,2.67,1.48,3.34,2.89,6.71,4.28,10.09,1.61,3.94,4.14,7.52,7.31,10.36,5.71,5.17,16.09,6.05,22.43-.89,1.12-1.2,2.17-2.52,3.12-3.93,1.48-2.29,2.99-4.62,4.3-7.03.01.08.04.15.05.23,0,.02.01.05.02.07,1.37,7.07,5.62,12.26,12.1,14.65,2.28.85,4.62,1.25,6.91,1.25,6.55,0,12.72-3.33,16.3-9.22,4.36-7.15,6.01-15.02,5.01-24.08ZM1122.48,463.66c-.81,1.21-1.72,2.35-2.71,3.41-4.86,5.32-12.09,4.14-16.03,1.18l22.77-11.21c-1.24,2.28-2.64,4.48-4.02,6.62ZM1143.72,470.01c-4.28-1.58-7.25-4.62-8.77-8.86l25.86,4.29c-4.62,5.72-11.86,6.5-17.09,4.56Z" fill="#3d3429"/>
  <path d="M1310.18,451.16c-.79-.59-1.85-.47-2.55.17-.02,0-.04,0-.06,0l-29.62,4.85-.68-1.21c-.29-.52-.79-.88-1.38-.99l-30.89-5.96c-.34-.07-.67-.02-.98.08-1.44-.91-2.93-1.75-4.55-2.4-5.7-2.38-11.75-3.5-17.85-3.31-2.43.02-4.82.69-6.94,1.97-.77.49-1.82,1.29-2.07,2.63-.25,1.36.46,2.5,1.02,3.24.19.25.39.48.6.71.12.13.24.26.39.46.65.83.71,1.98.06,3.02-.49.95-1.55,1.5-2.66,1.35-1.43-.13-2.59-.79-3.25-1.84-.67-1.07-.77-2.41-.29-3.71.64-1.54,1.65-2.94,2.92-4.03.84-.73.94-2,.21-2.85-.72-.84-2-.94-2.85-.22-1.75,1.5-3.14,3.42-4.05,5.62-.93,2.54-.7,5.21.64,7.33,1.33,2.11,3.63,3.46,6.23,3.7,2.71.35,5.41-1.06,6.6-3.35,1.48-2.33,1.32-5.36-.35-7.48-.19-.26-.41-.51-.63-.75-.12-.13-.24-.26-.35-.4-.01-.01-.02-.03-.03-.04,1.46-.87,3.13-1.33,4.86-1.34,5.57-.19,11.05.84,16.24,3.01,4.51,1.82,8.19,5.09,11.74,8.26,1.46,1.3,2.9,2.61,4.35,3.92,2.68,2.42,5.35,4.83,8.08,7.18,4.39,3.77,9.29,5.67,14.61,5.67,1.55,0,3.13-.16,4.75-.48,4.7-.92,9.18-2.62,13.31-5.04,5.69-3.33,10.72-8.08,15.81-14.95.67-.9.48-2.16-.42-2.82ZM1280.69,470.01c-5.91,1.17-11.28-.27-15.95-4.29-2.71-2.33-5.35-4.72-8-7.12-1.45-1.32-2.9-2.63-4.37-3.93-.53-.47-1.09-.95-1.64-1.44l23.47,4.53.76,1.36c.07.19.17.37.29.52l5.79,10.28c-.13.03-.25.06-.37.09ZM1292.75,465.45c-2.43,1.42-5,2.54-7.66,3.39l-5.02-8.92,23.71-3.88c-3.55,4.08-7.14,7.13-11.03,9.4Z" fill="#3d3429"/>
  <path d="M1390.64,460.66l-1.6,1.31c-.53.42-1.34.87-2.18.62-.67-.21-1.23-.82-1.51-1.7-.31-.9-.48-1.84-.51-2.79-.04-1.11-1.01-2.07-2.09-1.95-1.11.04-1.98.97-1.95,2.09.05,1.35.29,2.68.71,3.92.67,2.1,2.23,3.7,4.18,4.29.6.18,1.21.26,1.81.25-1.23,1.65-2.61,2.87-4.22,3.74l-23.98-21.24c0-.27-.01-.54-.02-.81-.12-4.18-.24-8.36-.31-12.54-.02-1.11-.85-1.97-2.06-1.98-1.12.02-2,.94-1.98,2.06.07,4.2.19,8.39.31,12.59.09,3.16.18,6.33.25,9.56.14,2.61.71,5.15,1.67,7.49.97,2.64,2.72,4.86,5.05,6.42,4.14,2.77,7.91,4.11,11.87,4.23.34,0,.68.01,1.01.01,3.27,0,6.08-.48,8.54-1.5.08-.03.15-.08.23-.11,4.01-1.74,7.05-4.96,9.53-9.97.24-.69.41-1.4.52-2.12.12-.82-.28-1.64-1.01-2.05-.71-.41-1.62-.34-2.27.19ZM1374.21,472.16c-3.16-.09-6.26-1.22-9.74-3.55-1.62-1.08-2.83-2.62-3.54-4.52-.82-1.98-1.29-4.08-1.4-6.17-.02-1.06-.06-2.12-.08-3.18l19.38,17.17c-1.39.22-2.91.31-4.62.26Z" fill="#3d3429"/>
  <path d="M1625.77,457.91c.11,2.09.58,4.19,1.4,6.17.7,1.91,1.91,3.44,3.54,4.52,3.48,2.33,6.58,3.46,9.74,3.55,1.71.05,3.23-.03,4.62-.26l-19.38-17.17c.03,1.06.06,2.12.08,3.18Z" fill="#614bf2"/>
  <path d="M1656.88,460.66l-1.6,1.31c-.53.42-1.34.87-2.18.62-.67-.21-1.23-.82-1.51-1.7-.31-.9-.48-1.84-.51-2.79-.04-1.11-1.01-2.07-2.09-1.95-1.11.04-1.98.97-1.95,2.09.05,1.35.29,2.68.71,3.92.67,2.1,2.23,3.7,4.18,4.29.6.18,1.21.26,1.81.25-1.23,1.65-2.61,2.87-4.22,3.74l-23.98-21.24c0-.27-.01-.54-.02-.81-.12-4.18-.24-8.36-.31-12.54-.02-1.11-.85-1.97-2.06-1.98-1.12.02-2,.94-1.98,2.06.07,4.2.19,8.39.31,12.59.09,3.16.18,6.33.25,9.56.14,2.61.71,5.15,1.67,7.49.97,2.64,2.72,4.86,5.05,6.42,4.14,2.77,7.91,4.11,11.87,4.23.34,0,.68.01,1.01.01,3.27,0,6.08-.48,8.54-1.5.08-.03.15-.08.23-.11,4.01-1.74,7.05-4.96,9.53-9.97.24-.69.41-1.4.52-2.12.12-.82-.28-1.64-1.01-2.05-.71-.41-1.62-.34-2.27.19ZM1640.44,472.16c-3.16-.09-6.26-1.22-9.74-3.55-1.62-1.08-2.83-2.62-3.54-4.52-.82-1.98-1.29-4.08-1.4-6.17-.02-1.06-.06-2.12-.08-3.18l19.38,17.17c-1.39.22-2.91.31-4.62.26Z" fill="#3d3429"/>
  <path d="M1440.41,441.77c-.12-1.11-1.12-1.89-2.23-1.79-1.11.12-1.91,1.12-1.79,2.23.32,3,.22,5.82-.1,8.55l-4.11,2.29-30.78-14.98c-.06-2.74-.12-5.48-.16-8.22-.02-1.11-.92-1.99-2.02-1.99h-.03c-1.11.02-2,.94-1.99,2.05.04,2.87.11,5.74.17,8.61-.2.52-.18,1.06.03,1.54,0,.24,0,.49.01.73.1,4.55.2,9.09.25,13.68.09,2.98.68,5.9,1.72,8.64.92,2.63,2.58,4.88,4.82,6.51,2.16,1.59,4.51,3.22,7.42,4.12,2.28.7,4.77,1.12,7.3,1.12,6.3,0,12.84-2.59,16.96-9.83,3.98-7,5.46-14.6,4.53-23.25ZM1403.18,461.72c-.9-2.37-1.4-4.85-1.48-7.34-.04-3.93-.13-7.85-.21-11.78l26.39,12.84-20.55,11.44c-.25-.18-.5-.35-.74-.53-1.58-1.15-2.75-2.73-3.41-4.63ZM1432.37,463.03c-4.6,8.09-13.11,8.83-19.56,6.85-.51-.16-1.01-.36-1.5-.58l23.94-13.33c-.7,2.43-1.59,4.8-2.88,7.06Z" fill="#3d3429"/>
  <path d="M1701.54,460.46c-.72-.41-1.63-.34-2.27.2l-1.61,1.31c-.53.42-1.34.88-2.18.62-.67-.21-1.23-.82-1.51-1.7-.31-.89-.48-1.83-.51-2.79-.04-1.11-1.06-2.07-2.09-1.95-1.09.04-1.93.93-1.94,2.01l-21.64-14.04c-.08-2.75-.16-5.51-.2-8.26-.02-1.11-.9-1.97-2.06-1.98-1.12.02-2,.94-1.98,2.06.07,4.26.2,8.52.32,12.79.09,3.1.18,6.2.25,9.35.13,2.6.71,5.14,1.67,7.49.97,2.64,2.72,4.86,5.05,6.42,4.14,2.77,7.91,4.12,11.86,4.23.35,0,.68.01,1.02.01,8.79,0,14.27-3.44,18.3-11.58.24-.69.41-1.4.52-2.12.12-.82-.28-1.64-1.01-2.05ZM1682.83,472.15c-3.16-.09-6.25-1.22-9.74-3.55-1.62-1.08-2.83-2.61-3.53-4.52-.82-2-1.29-4.1-1.4-6.18-.07-2.97-.15-5.93-.24-8.9l23.23,15.08c.8,1.12,1.88,1.97,3.16,2.36.6.18,1.22.28,1.81.25-3.07,4.11-6.94,5.64-13.3,5.46Z" fill="#3d3429"/>
  <path d="M843.25,428.92c-1.07-.32-2.2.27-2.53,1.33-.7,2.27-1.67,4.47-2.76,6.66l-40.23,21.44-30.77-8.13c.79,1.7,1.7,3.34,2.75,4.91l40.84,10.79c-11.72,6.72-27.57,4.22-37.31-6.3-1.3-1.41-2.47-2.92-3.53-4.49l-4.73-1.25c-.51-.13-.91-.46-1.18-.88,1.7,3.38,3.85,6.54,6.47,9.36,6.89,7.44,16.49,11.32,25.98,11.32,6.79,0,13.52-1.99,19.15-6.09.35-.26.67-.56,1.02-.82.1-.07.19-.16.29-.23.08-.08.11-.2.19-.28,5.09-3.85,9.9-8.1,14.23-12.77,6.79-7.36,11.07-14.36,13.44-22.04.33-1.07-.27-2.2-1.33-2.53ZM813.03,464.32c.61-.44,1.17-.96,1.77-1.42h0c-.6.46-1.16.98-1.77,1.42ZM828.17,450.74c-4.09,4.42-8.64,8.44-13.45,12.1l-11.14-2.94-.1-.03,30.38-16.19c-1.66,2.34-3.48,4.68-5.69,7.06Z" fill="#3d3429"/>
</svg>